<svg xmlns="http://www.w3.org/2000/svg" viewBox="0 0 2511.95 3007.47"><defs><style>.cls-1{opacity:0.2;}.cls-2{fill:#371a45;}.cls-3{opacity:0.25;}.cls-4{fill:#fff;}.cls-5{opacity:0.35;}.cls-6{fill:#22a7f0;}.cls-7{fill:#293856;}.cls-8{fill:#21102b;}.cls-9{opacity:0.5;}.cls-10{fill:#8ddffc;}.cls-11{fill:#1dbaff;}.cls-12{fill:#ffda22;}.cls-13{opacity:0.4;}.cls-14{fill:#ff0068;}</style></defs><g id="Capa_2" data-name="Capa 2"><g id="Layer_1" data-name="Layer 1"><g class="cls-1"><ellipse class="cls-2" cx="983.08" cy="2787.8" rx="962.9" ry="219.67"/></g><g class="cls-3"><path class="cls-2" d="M1816.58,2399.15c-3.68,24.29-11.19,50.3-23.24,78-95.81,220.36-414.72,227.22-414.72,227.22l-66.43-333.82s30.65-95.06,139.82-169.46h0c25.83,129.82,143.89,221.59,275.9,211.9C1757.62,2410.83,1787.7,2406.52,1816.58,2399.15Z"/></g><path class="cls-2" d="M1362.14,2724.89l-70.73-355.51,1.6-5c2.06-6.38,52.57-157,245.89-231,58.82-22.53,168.65,2.33,238.38,75.23,39.75,41.54,97.08,132.71,34.53,276.59-99.8,229.57-419.22,239-432.77,239.32Zm-29.05-352.62L1395,2683.2c65.35-5.25,302.64-36.41,379.87-214.06,50.58-116.36,13.41-190.74-26.68-232.64-56.13-58.67-149.15-82.95-194.83-65.45C1396.85,2231,1342.9,2347.78,1333.09,2372.27Z"/><path class="cls-4" d="M1526.75,2867.24c80-55.21,260.41-168.49,243.46-324.8-8.79-81.05-54.14-132.29-103.57-143.12-65.22-14.27-145.41,18.37-237.79,77.85"/><path class="cls-2" d="M1526.77,2887.4a20.16,20.16,0,0,1-11.47-36.76c4.47-3.08,9.26-6.35,14.3-9.8,82.23-56.13,235.27-160.62,220.57-296.22-8.16-75.27-50-117.32-87.85-125.6-53.93-11.82-124.64,12.06-222.56,75.1a20.16,20.16,0,1,1-21.83-33.9c107.53-69.23,187.94-94.84,253-80.59,63.4,13.88,110.23,76.93,119.31,160.64,17.31,159.63-148.72,273-237.92,333.88-5,3.4-9.72,6.64-14.14,9.69A20.17,20.17,0,0,1,1526.77,2887.4Z"/><path class="cls-4" d="M162.51,1557.22c-119.3,115.1-181.23,599.9-115.76,876.11s563.06,235.34,845,190.89,201-684.36,175.86-855.34C1028.36,1501.88,339.29,1386.67,162.51,1557.22Z"/><g class="cls-3"><path class="cls-2" d="M891.75,2624.22c-281.93,44.45-779.5,85.28-845-190.91-8.54-36.17-14.95-75.89-19.27-117.91,85.85,51.69,179.24-17.54,191.68-93.4,70.38-429.21,173.65-673.65,249.6-745,259.12,3.88,572.8,114.26,598.84,291.92C1092.75,1939.86,1173.68,2579.77,891.75,2624.22Z"/></g><path class="cls-2" d="M526.61,2676.65c-243.73,0-456.15-55.9-499.48-238.67-31.42-132.55-35.82-321.61-11.78-505.73,24.78-189.83,73.32-331.81,133.16-389.54h0C267,1428.38,576.87,1438.28,796,1513c172.69,58.91,276.23,148.73,291.54,252.92,18.43,125.34,38.13,310.24,27.4,479.34-15.49,244.08-89.53,378.27-220.06,398.86C775.64,2662.93,647.27,2676.65,526.61,2676.65ZM176.51,1571.73c-51.82,50-98.25,190.13-121.18,365.74C31.89,2117,36,2300.63,66.37,2428.68c60.69,256,541.22,219.93,822.23,175.62,109.35-17.24,172-138.89,186.1-361.58,10.51-165.6-8.91-347.49-27-470.91-12.82-87.21-109.29-167.62-264.67-220.62-234.34-79.93-512.07-70.53-606.47,20.54Z"/><path class="cls-4" d="M249,2023.57l-131.89-34.39A51.2,51.2,0,0,0,53.39,2032c-13.67,105.1-27.95,321.19,79.89,351.59,130.69,36.84,156.8-111.87,154-311.36A51.14,51.14,0,0,0,249,2023.57Z"/><g class="cls-3"><path class="cls-2" d="M287,2072c3.24,199.47-22.54,348.29-153.31,311.7-53.71-15-77.26-76.08-85.67-146.61,12.88,18.88,29.67,32.64,51.53,38.73,117.07,32.69,150.05-83.16,153.23-251A50.67,50.67,0,0,1,287,2072Z"/></g><path class="cls-2" d="M170.75,2409.39a158.11,158.11,0,0,1-42.45-6.29C8.2,2369.55,17.06,2154.77,33,2029.73a71.37,71.37,0,0,1,88.68-60l132,34.09a71.48,71.48,0,0,1,53.54,67.8c2.87,178.1-19.48,275.75-72.46,316.63C216.55,2402.34,195.12,2409.39,170.75,2409.39Zm-67-401.59a30.8,30.8,0,0,0-17.34,5.38A30.48,30.48,0,0,0,73,2034.84c-9,70.43-30.83,302.34,66.11,329.43,30,8.39,53.23,5.8,71-7.9,54.31-41.91,58.41-182.19,56.77-284.06a31,31,0,0,0-23.31-29.41h0l-132-34.08A31.24,31.24,0,0,0,103.71,2007.8Z"/><path class="cls-2" d="M138.92,1578.67c16.28,3.51,32.05,7.24,48,11.16s31.7,8.05,47.47,12.38c31.54,8.71,62.88,18.26,93.73,29.68a10.09,10.09,0,0,1-6,19.25l-.12,0c-31-7.93-62.49-14.08-94.16-19.37q-23.78-3.95-47.63-7.27c-15.87-2.2-31.94-4.27-47.62-6h-.12a20.19,20.19,0,1,1,6.44-39.81Z"/><path class="cls-4" d="M1418,2566c-143.5,307-758.92,357.81-958.32,135C360.48,2590.07,319.9,2449.35,315,2300.25c-1.86-56.3,1.36-113.76,8.47-171.22,26.46-214.72,106.6-429.84,176.36-585C562,1405.59,616,1314.92,616,1314.92L1452.11,1499c-32.21,94-46.37,182.51-49.95,266.43C1388.6,2082.51,1526.46,2334.12,1418,2566Z"/><path class="cls-4" d="M1418,2566c-143.5,307-758.92,357.81-958.32,135C360.48,2590.07,319.9,2449.35,315,2300.25c-1.86-56.3,1.36-113.76,8.47-171.22,26.46-214.72,106.6-429.84,176.36-585C562,1405.59,616,1314.92,616,1314.92L1452.11,1499c-32.21,94-46.37,182.51-49.95,266.43C1388.6,2082.51,1526.46,2334.12,1418,2566Z"/><g class="cls-3"><path class="cls-2" d="M1455.54,2434c-5.65,44.86-17.29,88.76-37.5,132-143.5,307-758.92,357.81-958.32,135-103.61-115.72-143.29-264-145.19-420.38,0-1.38,0-2.76,0-4.15q-.06-7.53,0-15.08c0-2,0-4,.06-5.95q.09-6.9.28-13.81c.05-2,.09-4,.15-6q.31-9.59.78-19.19c0-.4.05-.8.05-1.21.55-11.19,1.31-22.43,2.22-33.72q1.43-17.46,3.32-35c.66-5.79,1.36-11.64,2.07-17.49a297.56,297.56,0,0,0,25.05,19.36c176.61,122.53,468.7,57.16,468.7,57.16,107.91,65.27,23.54,164.76,23.54,164.76-147.89,17.69-261.86,10.07-344.42-4.78-63.84-11.49-114.83,52.09-90.89,112.37,19.81,49.85,45.15,97,75.58,131,199.4,222.84,814.82,172,958.32-135A412.28,412.28,0,0,0,1455.54,2434Z"/></g><g class="cls-3"><path class="cls-2" d="M315.82,2215.22c.55-11.24,1.31-22.48,2.22-33.72C317.13,2192.79,316.37,2204,315.82,2215.22Z"/></g><g class="cls-3"><path class="cls-2" d="M318,2181.5c.9-11.64,2-23.33,3.32-35Q319.47,2164.07,318,2181.5Z"/></g><g class="cls-3"><path class="cls-2" d="M323.43,2129l0,0c-.72,5.82-1.47,11.65-2.11,17.46C322,2140.73,322.72,2134.88,323.43,2129Z"/></g><g class="cls-3"><path class="cls-2" d="M348.48,2148.39a296.62,296.62,0,0,1-25-19.33c8.41-68.24,22.19-136.53,39.37-202.9C346,2009.48,345.25,2077.12,348.48,2148.39Z"/></g><path class="cls-2" d="M854.38,2858.68c-174.22,0-327.27-52.17-409.68-144.28C159,2395.27,345.07,1839,481.4,1535.78c62-137.91,116.7-230.25,117.24-231.17l7.45-12.51,872.42,192.11-7.32,21.37c-29,84.65-45,169.94-48.89,260.75-5.33,124.74,13,238.14,30.71,347.81,26.22,162.31,51,315.62-16.71,460.38-65.44,140-233.06,242.5-448.4,274.23A917,917,0,0,1,854.38,2858.68ZM626.05,1337.78c-16.67,29.35-60,108-107.87,214.54-132.32,294.27-313.9,833-43.43,1135.19,92.73,103.64,296.59,152.42,507.27,121.35,201.9-29.75,358.07-123.74,417.75-251.42h0c62.43-133.51,39.72-274.09,13.42-436.87-18-111.66-36.69-227.13-31.18-356,3.71-87.08,18.12-169.32,44-250.68Z"/><path class="cls-4" d="M1294.83,1706l-9.44-207A1475.87,1475.87,0,0,0,1294.83,1706Z"/><circle class="cls-4" cx="1480.75" cy="2194.31" r="88.54" transform="translate(-1117.91 1689.75) rotate(-45)"/><g class="cls-5"><path class="cls-2" d="M1569.27,2195.85a88.55,88.55,0,1,1-177.07-3.1,87.42,87.42,0,0,1,9.17-37.7,88.56,88.56,0,0,0,160.05,2.8A87.74,87.74,0,0,1,1569.27,2195.85Z"/></g><path class="cls-2" d="M1480.79,2303h-1.94a108.71,108.71,0,0,1,1.88-217.4l1.93,0a108.82,108.82,0,0,1,106.78,110.59h0A108.83,108.83,0,0,1,1480.79,2303Zm0-177.09a68.93,68.93,0,1,0,1.21,0Zm88.55,69.94h0Z"/><path class="cls-4" d="M1384.62,2412.32l-467.68,19.61c-55.35,2.34-102.59-41.06-104.92-96.49l-10.43-248.88c-2-48.52,31-90.72,76.45-102a97.73,97.73,0,0,1,20-2.89L1365.69,1962c55.43-2.34,102.66,41.06,104.93,96.48l8.3,197.12,2.19,51.76C1483.45,2362.81,1440,2410,1384.62,2412.32Z"/><g class="cls-5"><path class="cls-2" d="M1384.62,2412.32l-467.68,19.61c-55.35,2.34-102.59-41.06-104.92-96.49l-10.43-248.88c-2-48.52,31-90.72,76.45-102,27.3,16.52,44.64,27.1,44.64,27.1,31.15,198.81,28.58,347.28,337.68,313.73,106.56-11.56,176.84-46,218.56-69.73l2.19,51.76C1483.45,2362.81,1440,2410,1384.62,2412.32Z"/></g><path class="cls-2" d="M907.34,2452.43a115.51,115.51,0,0,1-115.21-110.54l-10.91-260.06a115.49,115.49,0,0,1,110.43-120.11l478.8-20.09a115.66,115.66,0,0,1,120.11,110.43l10.91,260.07A115.66,115.66,0,0,1,1391,2432.24l-478.79,20.09C910.6,2452.4,909,2452.43,907.34,2452.43Zm4-20.25h0Zm463.93-450.33c-1.06,0-2.11,0-3.18.07L893.34,2002a75.14,75.14,0,0,0-71.84,78.13l10.91,260.06A75.12,75.12,0,0,0,910.55,2412l478.8-20.09a75.34,75.34,0,0,0,71.84-78.13l-10.92-260.07a75.35,75.35,0,0,0-75-71.9Z"/><path class="cls-4" d="M1403.32,2409.69a90.08,90.08,0,0,1-18.7,2.63l-467.68,19.61a101,101,0,0,1-94.1-55.34,99,99,0,0,1-10.75-41.15l-4.68-110.56-1.55-36.48-4.27-101.84c-2.33-55.42,41.14-102.58,96.49-104.92l101.06-4.21c-46.21,10.73-80,53.28-77.94,102.29l5.6,134.44,4.83,114.51c2.33,55.35,49.57,98.82,104.92,96.48Z"/><g class="cls-5"><path class="cls-2" d="M1403.32,2409.69a90.08,90.08,0,0,1-18.7,2.63l-467.68,19.61c-55.35,2.34-102.59-41.06-104.85-96.49l-6.23-147c12.86,25.49,35.33,56.49,69.28,58.42,18.63,1.1,36.33-13,51.66-32.66l4.83,114.51c2.33,55.35,49.57,98.82,104.92,96.48Z"/></g><path class="cls-2" d="M912.58,2452.2a121.24,121.24,0,0,1-120.67-115.89L781.47,2087.4a121.26,121.26,0,0,1,115.77-125.93l101-4.22,5.41,39.78a80.72,80.72,0,0,0-62.33,81.87l10.45,248.91a80.87,80.87,0,0,0,83.88,77.18l366.81-15.42,5.64,39.72a112.73,112.73,0,0,1-22.77,3.17l-467.58,19.63C916.05,2452.16,914.31,2452.2,912.58,2452.2Zm14.48-451.62-28.13,1.17a80.94,80.94,0,0,0-77.17,83.95l10.44,248.93a80.88,80.88,0,0,0,83.88,77.17l31.42-1.32a119.89,119.89,0,0,1-36-81l-10.44-248.89A120.65,120.65,0,0,1,927.06,2000.58Z"/><path class="cls-6" d="M1110.91,2198.48c.33,9.21-9.92,84-9.92,84l-52.45,1.9c-36.12,1.31-66.75-35-68.42-81.15s26.26-84.58,62.37-85.89l52.45-1.9S1110.36,2183.48,1110.91,2198.48Z"/><g class="cls-5"><path class="cls-2" d="M1110.91,2198.48c.33,9.21-9.92,84-9.92,84l-52.45,1.9c-36.12,1.31-66.75-35-68.42-81.15s26.26-84.58,62.37-85.89l52.45-1.9S1110.36,2183.48,1110.91,2198.48Z"/></g><path class="cls-2" d="M1046.6,2299.52c-21.29,0-41.36-9.94-56.74-28.19-15.09-17.9-23.91-41.9-24.85-67.57-2-54.38,32.55-99.93,76.94-101.54l65-2.36,2.77,12.23c2.62,11.59,15.76,70.22,16.33,85.84h0c.35,9.75-7.61,68.74-10,86.58l-1.73,12.6-65.15,2.36C1048.26,2299.51,1047.43,2299.52,1046.6,2299.52ZM1082.92,2131l-39.88,1.44c-27.72,1-49.17,32.51-47.8,70.23.68,18.95,7,36.41,17.74,49.16,9.86,11.7,22.36,18,35,17.42l39.72-1.43c4.25-31.75,8.13-63.6,8.09-68.84C1095.46,2190.44,1088.56,2156.69,1082.92,2131Z"/><ellipse class="cls-6" cx="1097.96" cy="2198.95" rx="65.43" ry="83.57" transform="translate(-78.84 41.16) rotate(-2.07)"/><g class="cls-5"><path class="cls-2" d="M1032.58,2201.33c1.65,46.1,32.28,82.46,68.39,81.16s64.08-39.78,62.37-85.93a101.11,101.11,0,0,0-2.24-18.13c-8.14,32-31.25,55.46-59.3,56.43-31.18,1.13-58.32-25.81-66.15-63A104.84,104.84,0,0,0,1032.58,2201.33Z"/></g><path class="cls-4" d="M1032.58,2201.33a88.21,88.21,0,0,0,.78,9.27c5.86-36.4,30.56-64,61.07-65.13,33.64-1.19,62.59,30.27,67.61,71.93a105.91,105.91,0,0,0,1.3-20.84c-1.65-46.1-32.28-82.46-68.39-81.15S1030.93,2155.18,1032.58,2201.33Z"/><path class="cls-2" d="M1099.13,2297.62c-43.34,0-79.74-42.36-81.67-95.76-2-54.38,32.54-99.93,76.93-101.54s82.1,41.33,84.08,95.71-32.55,99.94-76.94,101.55C1100.73,2297.61,1099.93,2297.62,1099.13,2297.62Zm-2.28-167.11c-.46,0-.91,0-1.36,0-27.73,1-49.17,32.51-47.8,70.23s25,67.65,52.75,66.59,49.17-32.51,47.8-70.23h0C1146.9,2160,1124,2130.51,1096.85,2130.51Z"/><path class="cls-2" d="M1239.16,2431.74a15.12,15.12,0,0,1-15.11-14.85l-2.31-126a102,102,0,0,1,44.2-86,71.6,71.6,0,0,0,31.09-62l-6.83-177.53a15.12,15.12,0,1,1,30.22-1.17l6.83,177.54a101.71,101.71,0,0,1-44.15,88.09,71.81,71.81,0,0,0-31.13,60.57l2.31,126a15.12,15.12,0,0,1-14.84,15.4Z"/><path class="cls-4" d="M323.26,2053.28s-47.63,33-45.45,88.45c2.53,64.07,49.44,92.75,49.44,92.75s159.56,102.59,513.49,60.23c0,0,84.35-99.5-23.58-164.79C817.16,2129.92,495.63,2201.9,323.26,2053.28Z"/><g class="cls-5"><path class="cls-2" d="M277.78,2140.48h0c2,64.93,49.52,94,49.52,94s159.53,102.57,513.47,60.23c0,0,64.45-76.06,8.6-138.8l-.12,1.19c-4.39,40.32-37.48,71.72-77.88,75.28-321.07,28.33-466.48-65.13-466.48-65.13S290.85,2158.7,277.78,2140.48Z"/></g><path class="cls-2" d="M675.06,2325.19c-240.69,0-353.11-70.16-358.71-73.75-1.9-1.16-55.76-34.91-58.68-108.91-2.6-65.72,51.79-104.21,54.1-105.82l12.83-8.89L336.43,2038c162.81,140.38,473.21,72.94,476.33,72.24l7.9-1.77,6.94,4.19c36.49,22.08,57.79,50.38,63.29,84.11,9.47,58-33,108.83-34.77,111l-5.12,6-7.86.94A1415.37,1415.37,0,0,1,675.06,2325.19ZM323.78,2079.7c-11.26,11.71-26.93,33.17-25.82,61.24,2,51.85,38.39,75.44,39.94,76.42,1.75,1.1,156.84,96.51,491.91,58.33,8.62-12.4,26.3-42.29,21.25-72.6-3.26-19.6-16-37-37.82-51.75C761.23,2161.67,489.81,2207.65,323.78,2079.7Z"/><g class="cls-5"><path class="cls-2" d="M1182.71,2529.86l.07,0s0-.43,0-1.23A8.35,8.35,0,0,0,1182.71,2529.86Z"/></g><g class="cls-5"><path class="cls-2" d="M40,2174.25a20.76,20.76,0,0,1-3.13,7.39A59.18,59.18,0,0,0,40,2174.25Z"/></g><path class="cls-4" d="M1808.06,1284C1188.28,2208.47-126,1393.77,371.56,444.38,983.54-517,2341.32,326.4,1808.06,1284Z"/><path class="cls-4" d="M1808.06,1284C1188.28,2208.47-126,1393.77,371.56,444.38,983.54-517,2341.32,326.4,1808.06,1284Z"/><g class="cls-3"><path class="cls-2" d="M1463,1442.25c-32.21,94-46.37,182.51-50,266.44-320.06,163-675.1,48.08-902.37-221.43,62.25-138.45,116.18-229.13,116.18-229.13Z"/></g><path class="cls-4" d="M1808.06,1284C1188.28,2208.47-126,1393.77,371.56,444.38,983.54-517,2341.32,326.4,1808.06,1284Z"/><path class="cls-2" d="M1105.36,1704.56c-150.48,0-301.94-42-438.28-123.15-182.89-108.8-318.24-275.29-381.14-468.81-70.33-216.36-45.12-449.73,72.89-674.89l.61-1c143.53-225.47,338.83-369,564.79-415,200.39-40.82,413.05-2.3,598.86,108.43,186.19,111,322.78,280.45,384.62,477.21,69.31,220.49,39.19,456.91-87.09,683.68l-.62,1c-145.54,217.09-340.21,354.73-562.95,398A794.44,794.44,0,0,1,1105.36,1704.56ZM384,451.59c-254.48,486.18-24.09,913.64,297.77,1105.12,329.42,196,801.59,185.28,1114-280.23,272.74-490.39,42.27-925.19-287.42-1121.69C1181.87-39.81,690.83-29.86,384,451.59ZM1808.06,1284h0Z"/><g class="cls-3"><path class="cls-2" d="M1808.06,1284C1286.65,2091.79,103.35,1584.6,282.11,678c39.17,298.81,140.77,316.14,288.74,475.16,452.4,520,1223.56,197,1350.62-395.81C1943.66,943.32,1901.53,1128.3,1808.06,1284Z"/></g><path class="cls-7" d="M1105.36,1710.34c-151.52,0-304-42.31-441.24-124-184.09-109.51-320.36-277.14-383.69-472C209.62,896.52,235,661.6,353.71,435l.85-1.47C498.94,206.72,695.54,62.33,923.08,16c201.79-41.1,415.93-2.34,603,109.13,187.41,111.7,324.92,282.33,387.19,480.44,69.79,222.05,39.51,460-87.57,688.24l-.86,1.42c-146.42,218.39-342.36,356.88-566.66,400.48A800.21,800.21,0,0,1,1105.36,1710.34ZM389,454.49c-252.59,482.78-23.85,907.14,295.71,1097.24,327,194.57,795.8,183.92,1106.11-278.28,270.71-486.94,41.88-918.6-285.45-1113.69C1181.28-33.42,693.78-23.53,389,454.49Zm1419,829.5h0Z"/><path class="cls-2" d="M1105.36,1710.34c-151.52,0-304-42.31-441.24-124-184.09-109.51-320.36-277.14-383.69-472C209.62,896.52,235,661.6,353.71,435l.85-1.47C498.94,206.72,695.54,62.33,923.08,16c201.79-41.1,415.93-2.34,603,109.13,187.41,111.7,324.92,282.33,387.19,480.44,69.79,222.05,39.51,460-87.57,688.24l-.86,1.42c-146.42,218.39-342.36,356.88-566.66,400.48A800.21,800.21,0,0,1,1105.36,1710.34ZM389,454.49c-252.59,482.78-23.85,907.14,295.71,1097.24,327,194.57,795.8,183.92,1106.11-278.28,270.71-486.94,41.88-918.6-285.45-1113.69C1181.28-33.42,693.78-23.53,389,454.49Zm1419,829.5h0Z"/><path class="cls-2" d="M1675.79,1451.2C835.71,1950.36,118.22,970.49,754.84,398.88,1506.8-198,2355.78,726.1,1675.79,1451.2Z"/><path class="cls-8" d="M1899,871.79c6.39,883.19-1256.48,960.64-1394.84,154.14C910.3,1500.09,1663.58,1299.89,1899,871.79Z"/><path class="cls-2" d="M1175.47,1688.6c-112.29,0-225.88-26.7-331.55-79.08-167.15-82.86-300-220.89-374.23-388.67-81.83-185.07-85.54-389.42-10.74-591l.19-.48c82.78-206.59,258.66-374.9,482.55-461.79,224.66-87.18,469.43-81.3,671.53,16.15l1.55.75,1.4,1c169.23,120.61,282.18,307,318,524.89,33.87,205.81-5.87,418.75-109,584.25l-.08.13c-122.41,193.1-285.89,321.37-472.77,371A689.48,689.48,0,0,1,1175.47,1688.6ZM496.66,644.16c-153.88,414.94,67.2,781.53,365.17,929.23,259.34,128.55,658.3,127.06,929.17-300.14,190.16-305.14,156.27-801-196.84-1053.9-191.77-91.9-424.17-97.07-637.89-14.14C742.86,288,575.35,448,496.66,644.16ZM1808.06,1284h0Z"/><path class="cls-2" d="M1213.18,1608.66a746.08,746.08,0,0,1-145.91-14.27,720.91,720.91,0,0,1-441-280.64C527.37,1179.26,480.06,1017.14,493,857.23c14.3-176.62,100.18-340.31,248.36-473.35l.93-.79C919.88,242.13,1115.58,175,1308.09,189c173.1,12.59,333.88,90.59,452.71,219.63,121.6,132.05,186.94,303.77,184,483.52-3.32,200.89-91.24,399-254.27,572.81l-2,2.08-2.46,1.46C1530,1561.26,1369,1608.66,1213.18,1608.66ZM767.85,414.29c-313.07,281.48-280.43,642.53-109.12,875.58C847.37,1546.5,1230.87,1690.7,1663,1435.32c341.77-366.25,275.09-774.57,68.1-999.35C1523,210,1144.49,115.66,767.85,414.29Zm908,1036.91h0Z"/><path class="cls-4" d="M152.31,1028.91c54.35,388.67,448.47,366.91,434-9.38C544.28,610.08,123,633.29,152.31,1028.91Z"/><g class="cls-3"><path class="cls-2" d="M399.3,1312.18c118.19-5.66,205.05-149.25,185.19-312.34-75.41,170.26-253-112.75-265.06-193.58C15.53,880.77,182.45,1327.22,399.3,1312.18Z"/></g><path class="cls-2" d="M389.13,1331.34c-106.44,0-227.62-91-256.79-299.64l-.14-1.3c-15.68-211.57,92.74-318.14,200.1-327.63,62.61-5.53,126.5,20.75,175.35,72.11,54.12,56.89,88.25,140.78,98.69,242.6l.1,1.28c7.79,202.39-95.34,302.47-201,311.86C400.05,1331.1,394.6,1331.34,389.13,1331.34ZM172.37,1026.77c27.18,192.78,138,271.87,229.49,263.69,86.55-7.7,170.85-94,164.31-269.51-9.6-92.55-39.94-168-87.74-218.28-40.93-43-91.54-64.24-142.58-59.73C247.66,750.73,159,842.86,172.37,1026.77Z"/><path class="cls-4" d="M136.9,1050.44c44.38,314.93,339.9,303.61,328.23-.74C432.26,714,111.11,726.67,136.9,1050.44Z"/><path class="cls-2" d="M320,1302.47c-83.06,0-178.63-75.83-203.07-249.21l-.13-1.21c-13.88-174.24,69.25-261.54,152.36-268.91,93.73-8.36,198,79.9,216,264.6l.08,1.19c6.32,164.75-72.44,245.78-153.29,253Q326,1302.46,320,1302.47ZM157,1048.24C179,1203.51,261.23,1267.8,328.39,1261.78c61.77-5.52,121.72-72.83,116.62-210.71C429.33,892.9,346.48,816.78,272.73,823.3,208.88,829,145.48,901.78,157,1048.24Z"/><g class="cls-9"><path class="cls-4" d="M658.22,866.19c43.52,159.39,225.44,112.73,211-31.39C840.83,654.06,625.54,705.59,658.22,866.19Z"/></g><g class="cls-9"><path class="cls-4" d="M752.64,1116.66c20.17,60,100.12,41.13,84.25-26.09C816.72,1030.59,736.77,1049.45,752.64,1116.66Z"/></g><g class="cls-9"><path class="cls-4" d="M1791.2,918.81c109-586.66-499.64-672.85-686.52-551C1495.12,401,1664.29,645.12,1791.2,918.81Z"/></g><g class="cls-3"><path class="cls-2" d="M468.68,1121.2c6.37-44.29.61-90.47-14.35-132.85C395,1200,182.61,1102.91,135.4,949.66,83.32,1263.28,400.58,1415.13,468.68,1121.2Z"/></g><path class="cls-2" d="M568.26,782.72c-10.68,0-24-4-39.75-16.54a20.16,20.16,0,0,1,25.1-31.56c10.26,8.15,14.66,7.76,14.72,7.78,5-2.21,11.84-24.32,12.28-46a20.16,20.16,0,0,1,40.31.72c-.19,11-2.78,66.33-35.43,81.74A40,40,0,0,1,568.26,782.72Z"/><path class="cls-4" d="M638.39,2477.17c94.56-141.24,480.85-410.58,740,33.58,0,0,174.06-152.76,286.38-14.77,145.48,178.73-91.71,414.84-301.31,414.63C1166.59,2910.43,1166,2767.3,882,2801.39c-52.31,6.27-222.22,45.2-366.94-52.25"/><g class="cls-3"><path class="cls-2" d="M1363.45,2910.64c-196.87-.2-197.43-143.35-481.5-109.28-52.32,6.31-222.23,45.22-366.94-52.21l37.35-82.36c131.25,59.88,268.84,25.8,315.27,23.33,305.38-16.24,327.19,150.68,523.61,137.94,177.07-11.49,301.22-151.81,300.89-289C1773.13,2710.34,1556.55,2910.84,1363.45,2910.64Z"/></g><path class="cls-2" d="M630,2471.56c19.49-34.25,45.47-63.75,73.8-90.37a521.81,521.81,0,0,1,93.6-69.77,516.19,516.19,0,0,1,107.51-47.82c37.73-11.79,77.41-18.74,117.56-19a347.07,347.07,0,0,1,118.6,19.4c38.06,13.3,73.49,33.17,105.07,57.32l11.78,9.15c2,1.54,4,3,5.86,4.61l5.48,5,21.91,20c13.29,14.5,27.37,28.4,39.15,44,25.19,30.08,45.8,63.14,65.44,96.48l-30.71-5,0,0c4.39-3.76,8.13-6.69,12.22-9.83s8.1-6,12.21-8.93c8.22-5.78,16.67-11.21,25.31-16.37a343.89,343.89,0,0,1,54.65-26.59,238.89,238.89,0,0,1,60.58-14.69,194.13,194.13,0,0,1,32.11-.57c10.79,1,21.63,2.63,32.14,5.78a160.56,160.56,0,0,1,57.49,30.28,132.65,132.65,0,0,1,12,10.68,127.58,127.58,0,0,1,11,11.51l5.23,5.94c1.64,2,3.13,4.15,4.7,6.22l9.27,12.55c11.3,17.59,20.92,36.52,27.22,56.85a211.69,211.69,0,0,1,8.44,62.89c-1.26,42.45-15.21,83.06-36,118-10.19,17.74-22.39,34-35.51,49.35-13,15.49-27.63,29.33-42.72,42.54a457.7,457.7,0,0,1-48.2,35.8l-12.84,7.79-6.43,3.86-6.61,3.56-13.26,7.06-13.59,6.43c-4.49,2.22-9.14,4.12-13.79,6s-9.24,3.91-14,5.61c-9.5,3.3-18.91,6.81-28.67,9.4-9.61,3-19.53,5.06-29.38,7.31-4.94,1-10,1.73-15,2.6l-7.5,1.23-7.59.8c-5.07.48-10.11,1.1-15.2,1.45l-15.31.52c-5.15.29-10.11,0-15.14-.1s-10-.24-15.09-.69a325.67,325.67,0,0,1-60.19-9.34,334.94,334.94,0,0,1-57.22-20.59c-18.23-8.36-35.43-17.81-52.14-26.95s-33-17.88-49.61-25.34a340.83,340.83,0,0,0-50.83-18.42,351,351,0,0,0-53.16-10.12,474.56,474.56,0,0,0-54.78-2.69c-9.19,0-18.44.51-27.67.8-9.25.74-18.49,1.13-27.75,2.13s-18.67,1.75-27.59,3.11l-28.29,4.11c-38.45,5.43-77.94,8.82-117.55,7.7s-79.45-6.68-118-17.88a394.93,394.93,0,0,1-109.23-50.49,20.16,20.16,0,1,1,22.36-33.56l.17.11a354.61,354.61,0,0,0,97.93,45.22c34.81,10.11,71.21,15.17,107.9,16.29s73.67-2.07,110.81-7.32l28.39-4.12c10-1.5,19.56-2.22,29.33-3.32s19.58-1.48,29.36-2.24c9.85-.33,19.68-.89,29.58-.86a515.85,515.85,0,0,1,59.58,2.94,391.84,391.84,0,0,1,59.26,11.29,382.85,382.85,0,0,1,56.76,20.56c18.23,8.19,35.6,17.53,52.39,26.72,33.49,18.55,65.46,35.26,100,43.86a286.22,286.22,0,0,0,52.85,8.17c4.47.41,9,.55,13.52.61s9.09.38,13.49.09l13.31-.44c4.43-.31,8.87-.87,13.31-1.28l6.65-.69,6.63-1.1c4.41-.78,8.85-1.35,13.24-2.29,8.76-2,17.57-3.8,26.18-6.53,8.73-2.29,17.2-5.49,25.75-8.44,4.25-1.51,8.39-3.39,12.6-5.06s8.4-3.4,12.46-5.43l12.31-5.8,12-6.42,6-3.22,5.83-3.51,11.66-7.06a416.56,416.56,0,0,0,43.7-32.46c13.6-11.93,26.83-24.4,38.37-38.21,11.69-13.65,22.5-28.07,31.31-43.48,18.2-30.46,29.48-64.54,30.5-98.6a170.68,170.68,0,0,0-6.71-50.17c-5-16.22-12.84-31.54-22.12-46.11l-7.78-10.47c-1.3-1.73-2.55-3.54-3.9-5.22l-4.26-4.79a94.71,94.71,0,0,0-8.76-9.23c-3.07-2.87-6-6-9.38-8.36a120.06,120.06,0,0,0-43.07-22.78,128.06,128.06,0,0,0-24.13-4.36,153.74,153.74,0,0,0-25.08.48,198.79,198.79,0,0,0-50.4,12.31,303.12,303.12,0,0,0-48.22,23.5c-7.75,4.62-15.38,9.52-22.77,14.72-3.69,2.61-7.35,5.26-10.92,8s-7.23,5.64-10.1,8.09h0l-17.45,15.7L1361,2520.91c-19.86-31-39.79-62-63.69-89.45-11.22-14.42-24.41-26.83-36.81-40l-20-18.06-5-4.53c-1.73-1.43-3.55-2.73-5.31-4.1l-10.66-8.15c-28.58-21.38-59.71-39-93-50.7a313.44,313.44,0,0,0-103.82-17.7c-35.43,0-71,5.65-105.57,15.66s-68,24.64-100,42.1a644.4,644.4,0,0,0-91.24,60.71q-21.57,17.1-41.58,36a483.7,483.7,0,0,0-37.49,40.05l-.18.21A10.1,10.1,0,0,1,630,2471.56Z"/><path class="cls-2" d="M980,2816.58a20.16,20.16,0,0,1-19.47-15c-4.56-17.22-109.42-422.94,91.29-550.12a20.16,20.16,0,1,1,21.59,34.06c-175.83,111.42-74.94,501.8-73.91,505.73a20.19,20.19,0,0,1-19.5,25.33Z"/><path class="cls-10" d="M1378.37,2510.75s31,71.72,25,157.87"/><path class="cls-2" d="M1396.88,2502.75c1.44,4,2.44,7.23,3.47,10.75s1.94,6.88,2.88,10.31q2.64,10.3,4.76,20.62a395.82,395.82,0,0,1,6.26,41.52,364.78,364.78,0,0,1,1.9,41.78,358.77,358.77,0,0,1-2.78,41.6,10.08,10.08,0,0,1-20.1-1v-.42a347.56,347.56,0,0,0-8.87-77.17,361.4,361.4,0,0,0-10.49-37.22c-2.05-6.08-4.28-12.09-6.61-18-1.22-2.93-2.39-5.88-3.67-8.73s-2.64-5.87-3.76-8a20.21,20.21,0,0,1,35.94-18.49,18.94,18.94,0,0,1,1,2.32Z"/><path class="cls-4" d="M1035.44,1596.21l29.65-69.15s435.53-50.18,513.52,129.27l-506.41,31.8Z"/><path class="cls-2" d="M1058.91,1709.16l-45.29-113.22,37.55-87.57,11.61-1.34c18.38-2.13,451.33-49.69,534.32,141.26l11.46,26.36Zm-1.65-112.68,28.25,70.61,458.91-28.82c-83.11-105.44-349.31-104-465.45-92.42Z"/><path class="cls-4" d="M1757.58,1611l31-143.2s-197.23,19.81-221.48,182.34Z"/><path class="cls-2" d="M1542.85,1675.65l4.25-28.53c11-73.35,56.25-131.2,131-167.3,54.92-26.51,106.24-31.91,108.4-32.12l27.58-2.77-39.58,183.14Zm219.66-183c-47.16,10.61-139.58,42.37-168.7,131.32l146.84-30.16ZM1757.58,1611h0Z"/><polygon class="cls-11" points="1573.03 1663.26 1485.53 2103.38 1433.16 2366.94 856.9 2239.32 951.96 1774.5 996.47 1556.75 1573.03 1663.26"/><path class="cls-12" d="M1302.53,2131.77c-109.17,76.32-259.52,49.69-335.85-59.47A240.66,240.66,0,0,1,928.53,1985c-19.12-88.87,13.24-184.35,89.33-242.42,2.71-2.09,5.47-4.11,8.3-6.09a241.55,241.55,0,0,1,119.59-42.83q3.13-.24,6.27-.4a241.46,241.46,0,0,1,244,173.58C1424,1963.3,1389.45,2071,1302.53,2131.77Z"/><g class="cls-5"><path class="cls-2" d="M921,1941.3q1.34,11.68,3.81,23.27a235.75,235.75,0,0,0,7.65,27.45,240.84,240.84,0,0,0,30.5,59.88c76.32,109.17,226.67,135.79,335.84,59.48a241,241,0,0,0,102-219.27c-.81-7.47-1.94-14.93-3.46-22.35a240.88,240.88,0,0,1-103,198.74c-109.17,76.31-259.51,49.69-335.84-59.48a240.84,240.84,0,0,1-30.5-59.88,236.31,236.31,0,0,1-7.65-27.45c-.16-.75-.32-1.5-.47-2.25a240.64,240.64,0,0,0,1.84,28.72Q921.31,1944.73,921,1941.3Z"/></g><g class="cls-13"><path class="cls-4" d="M1359.69,1792.75A241,241,0,0,0,1152,1693.23q-3.13.16-6.27.4a241.55,241.55,0,0,0-119.59,42.83c-2.83,2-5.59,4-8.3,6.09-76.09,58.07-108.45,153.55-89.33,242.42a240.34,240.34,0,0,0,7.65,27.45c.71,2,1.47,4.09,2.23,6.13-25.35-96.68,10.24-203.14,97-263.77a245.22,245.22,0,0,1,25.32-15.52,16.25,16.25,0,0,0,.57,1.92c4.91,13.49,25.87,18.25,46.83,10.62s34-24.74,29-38.23v0A245.92,245.92,0,0,1,1359.69,1792.75Z"/></g><path class="cls-2" d="M1166.1,2183.93a253.14,253.14,0,0,1-44.16-3.9,250.19,250.19,0,1,1,248.68-389.71c79.05,113.07,51.37,269.36-61.7,348.41A248.4,248.4,0,0,1,1166.1,2183.93Zm-1-482.46a232.17,232.17,0,1,0,133.5,422.47c104.91-73.35,130.59-218.37,57.25-323.28a230.61,230.61,0,0,0-149.78-95.57A235,235,0,0,0,1165.08,1701.47Z"/><g class="cls-5"><ellipse class="cls-2" cx="1094.37" cy="1792.29" rx="53.52" ry="33.53" transform="translate(-392.3 309.13) rotate(-13.66)"/></g><ellipse class="cls-12" cx="1096.36" cy="1802.74" rx="46.81" ry="21.05" transform="translate(-394.71 309.9) rotate(-13.66)"/><path class="cls-2" d="M1136.56,1762.68a26.68,26.68,0,0,1,10.93,10.78,25.43,25.43,0,0,1,2.5,15.78c-1.94,10.78-8.94,19.28-16.68,25.66a79.14,79.14,0,0,1-26.6,13.92,83.25,83.25,0,0,1-29.83,3.65c-10.05-.84-20.61-3.35-29.17-10.48a28.25,28.25,0,0,1-9.24-14,26.92,26.92,0,0,1,.88-16.59c3.89-10.22,11.64-17.56,20-22.83a78.06,78.06,0,0,1,27.21-10.49,1.54,1.54,0,0,1,.8,3l0,0c-8.75,3.15-17.24,7.05-24.3,12.76-7.16,5.39-13.14,12.53-15.59,20.27a18.09,18.09,0,0,0,6.49,20.36c6.28,4.91,15,7.27,23.69,7.78a76.59,76.59,0,0,0,26.28-3.11,74.71,74.71,0,0,0,23.89-11.4c7-5.18,13.15-12,15.23-19.93a19.14,19.14,0,0,0-.55-12,24.87,24.87,0,0,0-7.93-10,1.91,1.91,0,0,1,2.08-3.19Z"/><path class="cls-2" d="M1111.66,1843.33c-7,5.54-15.94,8.71-25,9.71a64.69,64.69,0,0,1-26.93-2.74,58.26,58.26,0,0,1-23.44-13.87c-6.51-6.41-11.36-15.64-10.51-24.89a1.55,1.55,0,0,1,1.68-1.4,1.53,1.53,0,0,1,1.36,1.16l0,.08c2,7.89,7,14,13.1,18.73a65.32,65.32,0,0,0,20.85,10.42,80.51,80.51,0,0,0,23.3,3.46,74,74,0,0,0,23.66-4l0,0a1.93,1.93,0,0,1,1.81,3.34Z"/><g class="cls-5"><ellipse class="cls-2" cx="1004.82" cy="1969.93" rx="33.59" ry="53.64" transform="translate(-270.82 163.54) rotate(-8.2)"/></g><ellipse class="cls-12" cx="1015.35" cy="1968.85" rx="21.05" ry="46.81" transform="translate(-270.55 165.03) rotate(-8.2)"/><path class="cls-2" d="M979.29,1925a26.73,26.73,0,0,1,11.77-9.86,25.38,25.38,0,0,1,16-1c10.55,3,18.34,10.73,24,19a79.13,79.13,0,0,1,11.32,27.8,83.31,83.31,0,0,1,.8,30c-1.79,9.92-5.29,20.19-13.2,28a28.23,28.23,0,0,1-14.79,7.86,26.93,26.93,0,0,1-16.44-2.44c-9.79-4.86-16.36-13.26-20.82-22a78.18,78.18,0,0,1-7.85-28.08,1.54,1.54,0,0,1,3-.52v0c2.31,9,5.38,17.84,10.39,25.41,4.69,7.64,11.23,14.27,18.7,17.45a18.11,18.11,0,0,0,20.89-4.53c5.48-5.79,8.66-14.25,10-22.85a76.58,76.58,0,0,0-.59-26.44,74.93,74.93,0,0,0-9.08-24.88c-4.5-7.44-10.68-14.22-18.39-17.06a19.18,19.18,0,0,0-12-.58,24.84,24.84,0,0,0-10.7,7,1.91,1.91,0,0,1-2.7.09A1.94,1.94,0,0,1,979.29,1925Z"/><path class="cls-2" d="M1057.21,1957.47c4.85,7.53,7.15,16.7,7.29,25.76a64.63,64.63,0,0,1-5.29,26.55,58.28,58.28,0,0,1-16,22c-7,5.87-16.65,9.82-25.78,8.09a1.55,1.55,0,0,1,.05-3.05h.08c8-1.25,14.59-5.65,19.9-11.26a65.32,65.32,0,0,0,12.35-19.77,80.6,80.6,0,0,0,5.66-22.85,74.07,74.07,0,0,0-1.71-23.94l0,0a1.93,1.93,0,0,1,3.5-1.49Z"/><g class="cls-5"><ellipse class="cls-2" cx="1188.44" cy="1924.31" rx="45.17" ry="38.53" transform="translate(-452.99 368.34) rotate(-14.83)"/></g><ellipse class="cls-12" cx="1183.05" cy="1939.76" rx="27.38" ry="33.94" transform="translate(-793.19 3060.82) rotate(-88.19)"/><path class="cls-2" d="M1199.45,1961.07c8.57-3.31,16.36-8.37,21.93-15.24,5.64-6.71,9.18-15,9.3-23.35a31.11,31.11,0,0,0-9-22.2c-5.73-6-13.81-9.59-22.18-11-16.83-2.83-35.58,3.81-46.31,17.38a35.71,35.71,0,0,0-8.17,23.84c.12,8.73,4.41,17.16,11,23.46a1.54,1.54,0,0,1,.06,2.18,1.55,1.55,0,0,1-2,.2,36.73,36.73,0,0,1-15.47-25.24,41.34,41.34,0,0,1,7.74-29.49c12.06-17.15,34.1-25.63,54.73-22.44A49.12,49.12,0,0,1,1229,1893.3c7.33,7.87,11.62,18.83,10.77,29.58-.69,10.79-5.92,20.58-13.09,27.8a53.27,53.27,0,0,1-26.14,14,1.91,1.91,0,0,1-1.06-3.66Z"/><path class="cls-2" d="M1128.25,1918c-1.8,8.81-1.61,17.87,1.26,26.06a48.19,48.19,0,0,0,14.07,21.11,56.43,56.43,0,0,0,22.46,12,69.41,69.41,0,0,0,25.67,2.41c17.29-1.52,34.26-9.11,46.28-21.78a59.3,59.3,0,0,0,13.54-22.17,51.09,51.09,0,0,0,1.42-26.27v0a1.54,1.54,0,0,1,2.94-.85,51.83,51.83,0,0,1,1.81,28.84,61.79,61.79,0,0,1-13.4,26.14c-12.79,15.25-32,24.38-51.64,26.31s-40.75-3.71-55.26-18a53,53,0,0,1-14.8-25.84,50.73,50.73,0,0,1,2-29,1.91,1.91,0,0,1,3.65,1.08Z"/><g class="cls-5"><ellipse class="cls-2" cx="1258.45" cy="1779.47" rx="23.97" ry="20.45" transform="translate(-68.31 50.33) rotate(-2.23)"/></g><ellipse class="cls-12" cx="1253.87" cy="1786.85" rx="14.53" ry="18.01" transform="translate(-788.89 2556.39) rotate(-75.58)"/><path class="cls-2" d="M1259.88,1799.58c9.54-1.34,18.2-7.82,20.19-16.29a16.08,16.08,0,0,0-2.08-12.13,20.77,20.77,0,0,0-10-8.05,26.08,26.08,0,0,0-25.49,3.48,18.61,18.61,0,0,0-7,11.09,17.69,17.69,0,0,0,2.78,13.29,1,1,0,0,1-1.53,1.21,19.66,19.66,0,0,1-5.31-15,22.28,22.28,0,0,1,7.47-14.68c8.34-7.66,20.94-9.56,31.45-5.45a26.57,26.57,0,0,1,13,10.79,21.54,21.54,0,0,1,2.16,17,23.72,23.72,0,0,1-10.25,13.08A28.41,28.41,0,0,1,1260,1802a1.21,1.21,0,0,1-1.19-1.24A1.24,1.24,0,0,1,1259.88,1799.58Z"/><path class="cls-2" d="M1228.18,1769.36a25.54,25.54,0,0,0,2.71,25.83c5.26,7.22,14,11.59,22.92,12.78a38.53,38.53,0,0,0,26.15-5.74c7.64-4.93,13.28-13.32,13.46-23a1,1,0,0,1,1.95-.13,27.47,27.47,0,0,1-2.26,15.31,33.06,33.06,0,0,1-10,12.2c-8.47,6.54-19.58,9.11-30.13,7.83s-21-6.74-26.87-16a28.51,28.51,0,0,1-4.66-15.35,27.06,27.06,0,0,1,4.61-14.93l0,0a1.21,1.21,0,0,1,2.1,1.2Z"/><path class="cls-2" d="M1317.94,1835.55a41.57,41.57,0,0,0-18.59,27.58c-2,11,.3,22.61,5.63,32.55a59.74,59.74,0,0,0,23.72,24.08,54,54,0,0,0,33.9,6.48h0a1.54,1.54,0,0,1,.78,3c-12.13,4.64-26.36,3.64-38.46-1.85a61.71,61.71,0,0,1-29-26.8c-6.47-11.79-9-26.12-5.48-39.42,3.32-13.27,13.33-24.78,25.78-29a1.92,1.92,0,0,1,1.66,3.43Z"/><g class="cls-5"><ellipse class="cls-2" cx="1343.65" cy="1879.34" rx="30.98" ry="37.38" transform="translate(-672.18 750.74) rotate(-25.19)"/></g><path class="cls-12" d="M1353,1909.85c-10.6,3-23.38-1.3-32.23-12-11.77-14.2-12.13-34.3-.79-44.89a22.74,22.74,0,0,1,5.21-3.68c8.67,1.07,17.48,5.85,24.24,14C1361.43,1877.73,1362.7,1897.68,1353,1909.85Z"/><path class="cls-2" d="M1366.66,1860.48c-9.82-8.9-24-12.46-34.83-7.59a22.25,22.25,0,0,0-11.62,12,26.75,26.75,0,0,0-.66,17.14,35,35,0,0,0,25.22,24.06,27.28,27.28,0,0,0,17.89-1.76,25,25,0,0,0,12.49-13.83,1.54,1.54,0,0,1,3,.8,27.91,27.91,0,0,1-12.25,18.57,32.68,32.68,0,0,1-22.61,4.56c-15.6-2.32-29-14.23-33.55-29.6a36.06,36.06,0,0,1,1.22-23.87,30.8,30.8,0,0,1,17.55-16.47,34.09,34.09,0,0,1,23.22.18,38.51,38.51,0,0,1,17.81,13.29,1.92,1.92,0,0,1-2.84,2.54Z"/><path class="cls-12" d="M1298.4,2035.12c11.9,4.77,21.61,12.53,27.68,23.09,11,19.14,7,41.95-7.35,63.15-9.39,13.91-23.44,26.63-41.14,36-44.68,23.71-95.67,17.24-113.88-14.45-6.78-11.79-8.06-25.41-4.7-39.09,5.67-23.09,25.14-45.2,53.19-60.09"/><path class="cls-2" d="M1328,2057.1c6.24,9,8.82,20.46,8,31.52s-4.76,21.72-10.14,31.18c-10.8,19.13-28,33.94-47.21,43.77s-41.22,15-63,12.87a79.3,79.3,0,0,1-31.22-9.36c-9.47-5.47-17.77-13.43-22.35-23.24a1.79,1.79,0,0,1,.87-2.4,1.82,1.82,0,0,1,2.25.6,52.86,52.86,0,0,0,22.65,18.27,78.2,78.2,0,0,0,28.48,6.13c19.63.61,39.34-4.52,56.82-13.6s33.1-22,43.75-38.44c5.24-8.25,9.33-17.24,10.92-26.73a46.48,46.48,0,0,0-3.75-28.35,2.24,2.24,0,0,1,3.88-2.22Z"/><g class="cls-5"><ellipse class="cls-2" cx="1244.83" cy="2100.16" rx="69.57" ry="50.56" transform="translate(-662.41 576.12) rotate(-20.72)"/></g><ellipse class="cls-12" cx="1243.32" cy="2115.75" rx="60.96" ry="38.44" transform="translate(-536.59 426.33) rotate(-16.05)"/><path class="cls-2" d="M1203.27,2152.34a44.5,44.5,0,0,1-17.64-10.59,41.37,41.37,0,0,1-10.64-18.36,46.18,46.18,0,0,1-.29-21.36,65.34,65.34,0,0,1,8-19.49,75.52,75.52,0,0,1,13.08-16.17,92.14,92.14,0,0,1,16.38-12.62,98.69,98.69,0,0,1,38.82-13.66c13.75-1.42,28.41-.26,41.3,6.75a46.64,46.64,0,0,1,16.4,14.47,41.46,41.46,0,0,1,7.21,20.71c1.11,14.8-5.31,28.34-13.61,39a88.49,88.49,0,0,1-31.7,24.29,1.8,1.8,0,0,1-1.72-3.16l0,0c10.75-6.84,20.5-15.23,27.34-25.57,6.8-10.16,11.2-22.2,9.75-33.58a33.53,33.53,0,0,0-19-26c-10.25-5.2-22.65-6.36-34.56-4.92a100.22,100.22,0,0,0-17.66,4.16,93.82,93.82,0,0,0-16.53,7.73,80.06,80.06,0,0,0-26.54,24.34c-6.6,9.87-10.7,21.85-8.49,33.28a34,34,0,0,0,7.29,15.72,44.27,44.27,0,0,0,14.45,10.94,2.24,2.24,0,0,1-1.66,4.15Z"/><g class="cls-3"><path class="cls-2" d="M1452.11,2073.19l-18.95,293.75L856.9,2239.32,952,1774.5c80.49-21.53,281-58.07,306.45,102.87,31.45,198.89-101.36,214.92-95.06,301.51C1170.36,2275.61,1371.07,2227.21,1452.11,2073.19Z"/></g><path class="cls-2" d="M1433.18,2387.09a20.08,20.08,0,0,1-4.36-.48L852.56,2259a20.15,20.15,0,0,1-15.39-23.72L976.7,1552.7a20.17,20.17,0,0,1,23.42-15.79l576.58,106.53a20.17,20.17,0,0,1,16.11,23.76L1453,2370.86a20.16,20.16,0,0,1-19.77,16.23ZM880.64,2223.93l536.78,118.86,131.86-663.41-537-99.22Z"/><path class="cls-4" d="M654.64,1688.13c14.25,50.46,43.89,127.77,98.94,138,83.43,15.48,135.22-53.54,208-74.71,37-10.77,324.43-32.51,254.65,229.32-45.65,171.27-175.9,159.76-233.38,173.53-58.88,14.1-403.58,282.83-557.05-115.61"/><g class="cls-3"><path class="cls-2" d="M1216.22,1980.7c-45.66,171.27-175.9,159.78-233.41,173.54-58.87,14.11-403.58,282.86-557-115.58h0a19.15,19.15,0,0,1,32.26.38c167.19,263.46,368.37,51.35,474.34,37.54,58.64-7.64,291,42.87,260.18-246.51-2.08-19.5,19.71,24.67,21.23,8.59C1229.23,1872.73,1232.71,1918.8,1216.22,1980.7Z"/></g><path class="cls-2" d="M664.34,1685.39c9.2,16.81,17,33.59,25.7,49.47s17.53,31.06,27.82,44l4,4.55a36.82,36.82,0,0,0,4.12,4.31l4.23,4,4.44,3.42,2.19,1.72c.76.5,1.55.9,2.31,1.36l4.56,2.73q2.37.93,4.7,1.93a24.51,24.51,0,0,0,2.34,1l2.41.56c1.66.35,3,.9,4.9,1.2l6,.66,6,.72h6l6,0c2-.09,4-.43,5.94-.61l5.94-.62c2-.35,3.94-.85,5.91-1.26,31.79-6.61,62-27.68,96.19-47.15,17.14-9.73,35.65-19.19,56.17-25.55,1.3-.42,2.45-.85,3.88-1.25l4.71-1.17c2.86-.58,5.61-1.12,8.27-1.53,5.28-.84,10.41-1.42,15.52-2,10.17-1,20.24-1.4,30.32-1.59,40.16-.12,80.79,4.72,120,19.35,19.49,7.37,38.59,17.5,55.38,31.47a152.16,152.16,0,0,1,40.54,51.5,167.21,167.21,0,0,1,15.94,62.4,252.74,252.74,0,0,1-3.49,61.75c-1.34,10.14-4,19.79-6.19,29.61-1,4.92-2.5,9.75-3.89,14.59l-2.11,7.27-2.46,7.2a275.62,275.62,0,0,1-25.83,55.89A226.06,226.06,0,0,1,1184.4,2091a204.22,204.22,0,0,1-22.31,22.69c-3.91,3.61-8.26,6.72-12.43,10-4.39,3-8.67,6.19-13.27,8.85a200,200,0,0,1-28.13,14.49c-19.3,8.3-39.37,13.43-59,17.27s-39.26,5.89-56.2,9.18c-2,.44-4.27.87-5.81,1.35l-2,.69a15.12,15.12,0,0,0-2.3.84l-5.54,2.38-6,2.91c-8.06,3.94-16.46,8.39-24.85,12.79-16.85,8.89-34.06,17.84-51.59,26.28-35,16.95-71.74,31.75-110.17,42.41-38.48,10.17-79,16.79-120.31,13.36-20.6-1.16-41-5.9-61-11.85l-14.64-5.52-7.3-2.8-7-3.48-14-7c-4.56-2.49-8.83-5.47-13.25-8.2-35.07-22.42-63.58-53-86-86.2l-4.33-6.18c-1.32-2.13-2.53-4.31-3.79-6.46l-7.35-13c-2.29-4.43-4.94-8.69-6.89-13.25s-3.94-9.1-5.76-13.71c-8.1-18.09-13-37.31-16.91-56.57a10.2,10.2,0,0,1,18.31-8l.5.71c11.18,15.72,19.7,32.26,29.81,47.72,2.46,3.9,4.79,7.86,7.1,11.82s5,7.6,7.52,11.43l7.39,11.44c1.21,1.91,2.37,3.87,3.63,5.74l4,5.42c20.47,29.62,45.57,55.46,75.06,73.77,3.72,2.22,7.29,4.72,11.11,6.73l11.66,5.63,5.82,2.85,6.09,2.2,12.15,4.44c16.62,4.63,33.57,8.5,51.11,9.21,34.89,2.79,70.78-2.65,105.81-11.91,35.07-9.63,69.38-23.42,103-39.47,16.87-8,33.55-16.46,50.48-25.21,8.52-4.38,17-8.79,26.09-13.16l6.89-3.26,7.62-3.2a43.8,43.8,0,0,1,4.42-1.57l4.8-1.49c3.05-.84,5.44-1.25,8.13-1.82,20.52-3.75,38.79-5.45,56.7-8.81s34.86-7.66,50.62-14.39a159.31,159.31,0,0,0,75.83-65.15c18.11-29.28,29.3-64.42,35.22-99.69a213.05,213.05,0,0,0,2.79-52.08,126.69,126.69,0,0,0-12.26-47.66,110.72,110.72,0,0,0-29.82-37.42c-12.63-10.34-27.72-18.29-43.89-24.21-32.45-11.84-68.83-16-104.71-15.59-9,.2-17.95.6-26.75,1.46-4.37.46-8.71,1-12.84,1.63-2,.31-4,.72-5.78,1.07l-2.23.54c-.85.25-1.94.66-2.91,1-15.92,5-31.63,12.84-47.56,22s-32.15,19.5-50,28.92-37.37,18-59,22.39c-2.69.53-5.36,1.13-8.08,1.57l-8.28.84c-2.76.23-5.52.6-8.29.7l-8.33-.13c-2.78-.07-5.56-.08-8.32-.23l-8.2-1.08-8.19-1.14c-2.82-.51-6-1.5-8.94-2.28l-4.5-1.29c-1.48-.47-2.84-1.17-4.26-1.76l-8.4-3.78-7.65-4.69c-1.26-.8-2.56-1.57-3.76-2.42l-3.42-2.7c-2.25-1.82-4.56-3.61-6.72-5.49l-6-5.93a63.14,63.14,0,0,1-5.62-6.13l-5.28-6.29A193.62,193.62,0,0,1,657,1749.21a223.33,223.33,0,0,1-12.1-58.34,10.31,10.31,0,0,1,19.32-5.65Z"/><polygon class="cls-11" points="1831.65 1476.96 1762.75 1823.54 1691.78 2180.65 1433.16 2366.94 1485.53 2103.38 1573.03 1663.26 1831.65 1476.96"/><g class="cls-3"><path class="cls-2" d="M1762.75,1823.54l-71,357.11-258.62,186.29,52.37-263.56c9.32,35.28,34.38,98.08,93.1,87.3,80.94-14.92,84-89,68.91-163-5.59-27.35-36.91-145.42,26.25-178.34C1699.39,1836,1730.59,1828,1762.75,1823.54Z"/></g><path class="cls-2" d="M1433.18,2387.09A20.16,20.16,0,0,1,1413.4,2363l139.86-703.66a20.17,20.17,0,0,1,8-12.43l258.61-186.29a20.16,20.16,0,0,1,31.56,20.29l-139.86,703.66a20.12,20.12,0,0,1-8,12.43L1445,2383.29A20.12,20.12,0,0,1,1433.18,2387.09ZM1591.26,1675l-128.33,645.66,210.63-151.73,128.33-645.66Z"/><path class="cls-4" d="M1783.78,1733.66c-12.26-1.59-100.65,7-118.32,131.57-11.48,80.89-8.38,113.18,26.91,151.18,18.66,20.08,26.42,44,40.62,39.67C1929.88,1995.45,1845.25,1741.62,1783.78,1733.66Z"/><g class="cls-3"><path class="cls-2" d="M1855.64,1891.58c-.75,67.19-31.6,136.5-122.63,164.52-14.21,4.33-22-19.61-40.62-39.67-34.58-37.2-38.26-68.9-27.63-146.07.81,33.92,10.19,56,32.77,80.25,18.65,20.06,45.21,29.58,60,28.57C1815.62,1975.35,1844.86,1938.61,1855.64,1891.58Z"/></g><path class="cls-2" d="M1729.19,2076.89c-17.62,0-28.83-16.07-37.35-28.29-4.35-6.21-8.83-12.64-14.24-18.47-41.76-45-43.66-86.26-32.11-167.73,19.13-134.78,117.53-151.75,140.88-148.74,45.64,5.91,82.63,84.09,88.53,153.4,8.65,101.54-42.18,179.4-136,208.29A32.94,32.94,0,0,1,1729.19,2076.89Zm52-323.21c-4.71,0-79.94,2.48-95.82,114.38-11.26,79.37-7.4,103.27,21.73,134.63,7.33,7.89,13.11,16.18,17.76,22.84,2.2,3.15,5,7.11,7.08,9.7,98.64-33,106.81-117.07,102.75-164.75-5.87-68.82-39.77-114.66-53.35-116.8Z"/><path class="cls-11" d="M1623.28,1627.07l-92.64,474.59-46.32,237.2s-5.8,22.84-44,28.08c-40.78,5.59-62.35-17.54-62.35-17.54l45.16-224.6,95.31-474.4s35,7.66,62,0C1614.76,1640.62,1623.28,1627.07,1623.28,1627.07Z"/><g class="cls-3"><path class="cls-2" d="M1530.64,2101.66l-46.32,237.2s-5.8,22.84-44,28.08c-40.78,5.59-62.35-17.54-62.35-17.54l45.16-224.6C1444.05,2157.86,1487.85,2203.68,1530.64,2101.66Z"/></g><path class="cls-2" d="M1427.85,2388c-41,0-63.59-23.7-64.63-24.82a20.17,20.17,0,0,1-5-17.73l140.5-699a20.16,20.16,0,0,1,24.08-15.72c8.45,1.82,34.17,5.4,52.11.3,21.41-6.08,29.72-13.33,31.6-15.21,4.45-8.8,14.13-12.06,23.64-9,9.68,3.16,14.9,14.14,13,24.14l-139,711.77-.24,1.07c-.94,3.69-10.55,36.22-60.82,43.12A111.51,111.51,0,0,1,1427.85,2388Zm-27.63-47.05c7.29,4,19.81,8.44,37.34,6.05,20.49-2.82,26.16-11.42,27.27-13.59L1595,1667c-2.85,1-5.86,1.91-9,2.82-17.66,5-37.17,4.7-51.45,3.34Z"/><path class="cls-2" d="M660,2274.79a20.13,20.13,0,0,1-16-7.83c-66-85.4-69.84-191.89-11.09-308,43.06-85.06,104-144.83,106.62-147.34a20.16,20.16,0,0,1,28.11,28.91h0c-2.29,2.24-227.87,225.61-91.74,401.74A20.16,20.16,0,0,1,660,2274.79Z"/><path class="cls-14" d="M2122.06,717.29a214.56,214.56,0,0,1-59-124.39c-14-118.22,70.48-225.41,188.7-239.41S2477.14,424,2491.14,542.2s-70.49,225.41-188.71,239.41a214.62,214.62,0,0,1-94.31-9.81l-92.46,43.62Z"/><g class="cls-9"><path class="cls-4" d="M2256.61,394.66c-110.43,13.08-191.41,107.48-190.18,216.22a215.18,215.18,0,0,1-4-22.68c-14-118.22,70.49-225.4,188.71-239.4s225.4,70.48,239.4,188.7a217.41,217.41,0,0,1,1.48,23.08C2467.89,454.51,2367.08,381.58,2256.61,394.66Z"/></g><path class="cls-2" d="M2115.66,834.71a19.29,19.29,0,0,1-19.25-20.54l5.86-89.82a232.56,232.56,0,0,1-58.4-129.18c-15.23-128.6,77-245.61,205.59-260.83s245.61,77,260.84,205.59-77,245.61-205.6,260.84a232.89,232.89,0,0,1-95.22-8.28l-85.58,40.38A19.37,19.37,0,0,1,2115.66,834.71Zm161.57-463.43a198.36,198.36,0,0,0-23.23,1.37c-107.46,12.73-184.54,110.51-171.81,218a194.34,194.34,0,0,0,53.74,113.24,19.3,19.3,0,0,1,5.39,14.67L2137.05,784l62.84-29.64a19.24,19.24,0,0,1,14.41-.83,194.56,194.56,0,0,0,85.86,8.92c107.47-12.73,184.55-110.51,171.82-218C2460.18,444.81,2375.21,371.28,2277.23,371.28Z"/><g class="cls-3"><path class="cls-2" d="M2120.43,715.53a248.71,248.71,0,0,0,227.1,2.16c82.55-41.33,132-122.3,137.14-208.28a217.15,217.15,0,0,1,6.47,32.79c14,118.22-70.49,225.41-188.71,239.41a214.62,214.62,0,0,1-94.31-9.81l-92.46,43.62,6.4-98.13C2121.51,716.71,2121,716.11,2120.43,715.53Z"/></g><path class="cls-4" d="M2208.91,507h0c18.66-18.66,48.9-15.32,67.56,3.34l2.9,2.9,2.9-2.9c18.66-18.66,48.9-22,67.56-3.34h0a47.77,47.77,0,0,1,0,67.55l-2.91,2.9-58.64,58.65a12.59,12.59,0,0,1-17.81,0l-58.65-58.65-2.91-2.9A47.77,47.77,0,0,1,2208.91,507Z"/></g></g></svg>