<svg xmlns="http://www.w3.org/2000/svg" viewBox="0 0 431.6 441.99"><defs><style>.cls-1{fill:#e0e0e0;}.cls-2{fill:none;stroke:#455a64;stroke-linecap:round;stroke-linejoin:round;stroke-width:3.56px;}.cls-3{fill:#37474f;}.cls-10,.cls-4{opacity:0.1;}.cls-5{fill:#455a64;}.cls-6{fill:#27debf;}.cls-15,.cls-16,.cls-19,.cls-20,.cls-7,.cls-8{fill:#fff;}.cls-7{opacity:0.7;}.cls-8{opacity:0.5;}.cls-14,.cls-18,.cls-9{opacity:0.2;}.cls-11,.cls-18{fill:#263238;}.cls-12,.cls-20{opacity:0.3;}.cls-13{fill:#f0f0f0;}.cls-15{opacity:0.6;}.cls-16{opacity:0.4;}.cls-17{fill:#fafafa;}</style></defs><g id="Capa_2" data-name="Capa 2"><g id="Playing_Box" data-name="Playing Box"><path id="Shadow" class="cls-1" d="M366.91,377.59c-1.33-6.18-8-11.07-15.55-13.61-3.35-4.15-9.49-8.87-20-14-23.27-11.34-35.82-17.2-42.25-20.12a15.45,15.45,0,0,0-13.28.54L222.44,362a5.36,5.36,0,0,1-4.69,0,1.52,1.52,0,0,1-.41-.31,1.42,1.42,0,0,1,.4-.31C237.32,350,271,330.31,276.22,326.84c2.63-1.73,2.56-4,1.62-5.5-2.61-4.24-15.31-7.42-20.86-4.22l-68,39.27c-2.31,1.33-3.56,3.28-3.44,5.37s1.78,4.19,4.53,5.39c9.54,4.14,26.09,11.61,50.76,23.63a74.18,74.18,0,0,1,15,9.23c-.47-.07-.93-.13-1.39-.17-17.54-1.72-27,4.56-28.34,11.11-1.07,5.24,2.77,10.07,9.81,12.31,9.87,3.14,25.85-.91,29.3-9.53a10,10,0,0,0,.26-6.75c4.21,2.33,7.53,5.58,8.32,9.22,1.08,5-2.83,10.24-11.32,15.15-24.44,14.11-43,5.44-70.6-10.51-4-2.28-31.65-18.13-80.11-45.85a20.48,20.48,0,0,1-10.27-17.72V344.62a1.78,1.78,0,1,0-3.56,0v12.65A24,24,0,0,0,110,378.08c48.46,27.72,76.16,43.57,80.1,45.85C208.11,434.36,223,442,238.26,442c8.32,0,16.78-2.26,25.95-7.56,12.58-7.26,14-14.33,13-19-1.34-6.2-7.62-11.12-14.69-13.71-3.32-4.19-9.49-9-20.15-14.16-24.72-12.05-41.32-19.53-50.9-23.69-1.43-.63-2.35-1.52-2.4-2.32s.57-1.45,1.67-2.09l68-39.26c2.78-1.6,9.36-.72,13.4,1.14,2.13,1,2.69,1.83,2.72,1.94s-.09.23-.62.58c-5.19,3.42-38.77,23.07-58.32,34.48a3.71,3.71,0,0,0,0,6.79,8.93,8.93,0,0,0,8.29,0l53.36-31.63a12,12,0,0,1,10-.36c6.41,2.91,18.93,8.75,42.15,20.07a74.37,74.37,0,0,1,15,9.22c-.46-.06-.92-.12-1.38-.16-17.54-1.72-27,4.55-28.34,11.11-1.08,5.24,2.77,10.07,9.8,12.31,9.87,3.14,25.86-.91,29.31-9.53a10,10,0,0,0,.15-7.08c4.66,2.31,8.37,5.6,9.17,9.29,1.06,4.91-3.11,10.24-12.06,15.41l-8.15,4.7a3.61,3.61,0,0,0-.6-.45,1.75,1.75,0,0,0-1.78-.17l-3.55,2a2.25,2.25,0,0,0-2.12-.12l-13.35,7.7a2.36,2.36,0,0,0-1,2.18,4.73,4.73,0,0,0,.07.83l-.5.32h0l-3,1.89h0l-.59.37h0l-3,1.92h0l-.54.34h0l-3.05,1.94h0l-.5.32-4.16,1.64a.75.75,0,0,0-.18.13l-1.12,1.06h0a1.27,1.27,0,0,0-.33.95,3.62,3.62,0,0,0,1.64,2.84,1.24,1.24,0,0,0,1,.19h0l1.43-.43a.64.64,0,0,0,.24-.1h0l3.5-2.78,3.73-1.95h0l.57-.3h0l3.17-1.65h0l.61-.32h0l3.12-1.62h0l.53-.28a3.89,3.89,0,0,0,.69.48,2.35,2.35,0,0,0,2.36.24l4-2.29,9.38-5.42a1.92,1.92,0,0,0,.23-.19,2.33,2.33,0,0,0,.73-1.7l3.55-2.05a1.29,1.29,0,0,0,.54-.61,2.42,2.42,0,0,0,.21-1,4.79,4.79,0,0,0-.08-.73s0-.05,0-.07v0l8.12-4.69C366.32,389.23,367.91,382.17,366.91,377.59Z"/><g id="Wire"><path id="Wire-2" data-name="Wire" class="cls-2" d="M99.67,339.39V352a22.18,22.18,0,0,0,11.17,19.27c23.11,13.22,74.51,42.62,80.1,45.85,26.88,15.52,46.78,25.28,72.38,10.5s5.94-29.8-9.09-31.27c-27.56-2.7-34,14.8-17.82,19.95s50.4-10.35,5.2-32.39c-25.13-12.25-41.81-19.75-50.83-23.67-4.23-1.84-4.66-5.41-.91-7.58l68-39.26c6.09-3.51,23.9,2.39,17.37,6.69-5.82,3.83-47.07,27.92-58.4,34.54-1.77,1-1.75,2.68,0,3.7h0a7.08,7.08,0,0,0,6.49,0l53.36-31.63a13.72,13.72,0,0,1,11.63-.45c6.47,2.93,19,8.78,42.2,20.09,45.21,22,10.95,37.53-5.2,32.39s-9.74-22.65,17.82-19.95c15,1.47,36.35,15.54,9.1,31.27l-15.93,9.2"/><g id="Plug"><path class="cls-3" d="M340.84,392.6a1.76,1.76,0,0,1,1.78.18,5.56,5.56,0,0,1,2.52,4.36,1.75,1.75,0,0,1-.75,1.63l-10.07,5.81-3.55-6.17Z"/><path class="cls-4" d="M344.83,395.61a4.49,4.49,0,0,1,.31,1.53,1.75,1.75,0,0,1-.75,1.63l-10.07,5.81-1.25-2.18Z"/><path class="cls-3" d="M335.06,403a5.59,5.59,0,0,0-2.52-4.36,1.54,1.54,0,0,0-2.52,1.46,5.57,5.57,0,0,0,2.52,4.36,1.54,1.54,0,0,0,2.52-1.46Z"/><path class="cls-5" d="M335.17,394.52a2.35,2.35,0,0,1,2.36.24,7.38,7.38,0,0,1,3.34,5.78,2.33,2.33,0,0,1-1,2.17l-13.35,7.71-4.71-8.19Z"/><path class="cls-4" d="M340.47,398.52a5.94,5.94,0,0,1,.4,2,2.33,2.33,0,0,1-1,2.17l-13.35,7.71-1.66-2.9Z"/><path class="cls-3" d="M327.51,408.26a7.41,7.41,0,0,0-3.34-5.79,2,2,0,0,0-3.34,1.93,7.38,7.38,0,0,0,3.34,5.79,2,2,0,0,0,3.34-1.93Z"/><path class="cls-6" d="M324.17,404.14a1.34,1.34,0,0,0-1.33-.14l-13.09,8.32L305.59,414l2.67,4.65,3.5-2.79,13.75-7.17a1.34,1.34,0,0,0,.55-1.23A4.2,4.2,0,0,0,324.17,404.14Z"/><path class="cls-7" d="M324.17,404.14a1.34,1.34,0,0,0-1.33-.14l-13.09,8.32L305.59,414l2.67,4.65,3.5-2.79,13.75-7.17a1.34,1.34,0,0,0,.55-1.23A4.2,4.2,0,0,0,324.17,404.14Z"/><path class="cls-6" d="M306.92,414.1a1.34,1.34,0,0,0-1.33-.14.79.79,0,0,0-.18.14h0l-1.12,1,2.3,4,1.43-.44h0a.85.85,0,0,0,.24-.09,1.34,1.34,0,0,0,.55-1.23A4.16,4.16,0,0,0,306.92,414.1Z"/><path class="cls-8" d="M306.92,414.1a1.34,1.34,0,0,0-1.33-.14.79.79,0,0,0-.18.14h0l-1.12,1,2.3,4,1.43-.44h0a.85.85,0,0,0,.24-.09,1.34,1.34,0,0,0,.55-1.23A4.16,4.16,0,0,0,306.92,414.1Z"/><path class="cls-6" d="M307.24,418a3.62,3.62,0,0,0-1.64-2.85,1,1,0,0,0-1.64,1A3.64,3.64,0,0,0,305.6,419a1.16,1.16,0,0,0,1.16.11A1.14,1.14,0,0,0,307.24,418Z"/><g class="cls-9"><path class="cls-6" d="M309.75,412.32a1,1,0,0,1,1,.11,3.11,3.11,0,0,1,1.42,2.46,1,1,0,0,1-.41.93l.52-.27a1.06,1.06,0,0,0,.41-1,3.16,3.16,0,0,0-1.42-2.46,1.05,1.05,0,0,0-1-.12Z"/><path class="cls-6" d="M313.3,410.06a1.11,1.11,0,0,1,1.09.12,3.4,3.4,0,0,1,1.55,2.68,1.09,1.09,0,0,1-.45,1l.57-.29a1.16,1.16,0,0,0,.44-1,3.4,3.4,0,0,0-1.55-2.68,1.13,1.13,0,0,0-1.11-.14Z"/><path class="cls-6" d="M316.85,407.81a1.18,1.18,0,0,1,1.18.12,3.7,3.7,0,0,1,1.68,2.91,1.19,1.19,0,0,1-.49,1.09l.61-.32a1.24,1.24,0,0,0,.49-1.12,3.74,3.74,0,0,0-1.68-2.91,1.25,1.25,0,0,0-1.2-.14Z"/><path class="cls-6" d="M320.4,405.55a1.3,1.3,0,0,1,1.27.13,4,4,0,0,1,1.8,3.13A1.29,1.29,0,0,1,323,410l.66-.35a1.33,1.33,0,0,0,.52-1.21,4,4,0,0,0-1.81-3.12,1.33,1.33,0,0,0-1.29-.16Z"/></g><g class="cls-10"><path d="M309.75,412.32a1,1,0,0,1,1,.11,3.11,3.11,0,0,1,1.42,2.46,1,1,0,0,1-.41.93l.52-.27a1.06,1.06,0,0,0,.41-1,3.16,3.16,0,0,0-1.42-2.46,1.05,1.05,0,0,0-1-.12Z"/><path d="M313.3,410.06a1.11,1.11,0,0,1,1.09.12,3.4,3.4,0,0,1,1.55,2.68,1.09,1.09,0,0,1-.45,1l.57-.29a1.16,1.16,0,0,0,.44-1,3.4,3.4,0,0,0-1.55-2.68,1.13,1.13,0,0,0-1.11-.14Z"/><path d="M316.85,407.81a1.18,1.18,0,0,1,1.18.12,3.7,3.7,0,0,1,1.68,2.91,1.19,1.19,0,0,1-.49,1.09l.61-.32a1.24,1.24,0,0,0,.49-1.12,3.74,3.74,0,0,0-1.68-2.91,1.25,1.25,0,0,0-1.2-.14Z"/><path d="M320.4,405.55a1.3,1.3,0,0,1,1.27.13,4,4,0,0,1,1.8,3.13A1.29,1.29,0,0,1,323,410l.66-.35a1.33,1.33,0,0,0,.52-1.21,4,4,0,0,0-1.81-3.12,1.33,1.33,0,0,0-1.29-.16Z"/></g></g></g><g id="Headphones"><path class="cls-11" d="M193.42,159.46c-.37.15-.73.3-1.09.47s-.56.3-.84.46-.67.39-1,.6-.52.37-.78.57-.62.47-.91.73-.49.44-.72.67-.56.57-.82.87-.44.51-.65.77-.5.66-.73,1-.37.55-.55.83l-.11.2c-.19.32-.37.64-.55,1l-.15.3c-.14.27-.28.54-.41.82l-.32.75c-.06.16-.13.32-.2.48s-.11.3-.17.46c-.12.32-.23.65-.34,1l-.27.87q-.23.79-.42,1.62c-.08.38-.16.76-.23,1.15,0,.21-.09.41-.12.62l-.12.69c-.08.57-.14,1.15-.2,1.74,0,.28-.07.55-.09.84,0,.1,0,.21,0,.32-.07.95-.11,1.93-.11,2.95a54.92,54.92,0,0,0,1.44,12.09c3.74,16.38,14.39,33.28,27.41,43a52.56,52.56,0,0,0,4.76,3.18l.67.37,1.14.62.88.43.93.44c.32.15.64.28,1,.41s.55.24.82.34l1,.37.79.27,1,.29.83.23.87.21c.38.09.76.16,1.14.23l.52.1.45.05,6.83-3.93a33.24,33.24,0,0,1-11.95-4.37c-18.58-10.72-33.63-36.77-33.63-58.22,0-8.68,2.48-15.26,6.66-19.32l-.66.18C194,159.22,193.71,159.35,193.42,159.46Z"/><path class="cls-3" d="M199.44,152.23a19.65,19.65,0,0,0-3,1.35c-1.16.67-5.68,3.29-6.79,3.92a.06.06,0,0,1,0,0,20.46,20.46,0,0,1,9.79-2.65Z"/><path class="cls-5" d="M226.6,244.73l-.52-.1c-.38-.07-.76-.14-1.14-.23l-.87-.21-.56-.14-.27-.09-1-.29-.79-.27-1-.37c-.28-.1-.56-.22-.84-.34l-.94-.4-.94-.45-.88-.43-1.15-.63-.65-.35a51,51,0,0,1-4.6-3.06,65.31,65.31,0,0,1-11.43-10.88,80.94,80.94,0,0,1-7.75-11.16A76.74,76.74,0,0,1,183,194.61c0-.11,0-.22-.07-.34a54.83,54.83,0,0,1-1.45-12.06c0-.94,0-1.85.1-2.75,0-.13,0-.27,0-.4l0-.27c.06-.75.14-1.48.24-2.2,0-.16.05-.31.07-.46s.09-.47.13-.7.12-.66.19-1,.14-.7.22-1,.21-.73.31-1.09l.12-.4a.94.94,0,0,1,0-.16c.09-.3.18-.59.28-.88s.27-.69.4-1,.35-.87.54-1.28.29-.58.45-.87c.05-.12.11-.23.17-.35.17-.29.33-.59.51-.87s.32-.51.49-.76l.23-.34c.13-.18.25-.36.39-.54s.2-.25.3-.38l.27-.34c.18-.22.37-.42.56-.63l.18-.19c.23-.25.47-.48.71-.71h0c.11-.1.23-.18.35-.28.29-.26.6-.5.91-.73s.51-.39.78-.57.66-.41,1-.6.55-.32.84-.46.72-.32,1.09-.47.58-.24.88-.34l.69-.2.51-.13c.3-.08.6-.16.91-.22s.87-.14,1.31-.19.6-.09.91-.12.54,0,.81,0v-3.36a20.46,20.46,0,0,0-9.79,2.65h0c-.42.24-.83.51-1.23.78l-.21.15a19.69,19.69,0,0,0-3.22,2.85l-.32.36c-.29.33-.58.67-.85,1-.09.11-.17.23-.25.34-.45.62-.88,1.27-1.28,1.95-.15.25-.3.5-.44.75s-.35.66-.51,1-.33.7-.48,1.06-.3.69-.44,1.06c-.22.56-.42,1.13-.61,1.72-.09.28-.17.57-.25.86-.15.51-.28,1-.4,1.54-.06.26-.13.51-.18.77q-.24,1.14-.42,2.34c0,.19,0,.39-.07.59-.08.67-.15,1.35-.21,2.05,0,.25,0,.5-.05.75,0,.89-.09,1.79-.09,2.71a60.72,60.72,0,0,0,2.78,17.45,78.62,78.62,0,0,0,3.26,8.8q.94,2.18,2,4.31a86.85,86.85,0,0,0,7.5,12.21c5.64,7.65,12.43,14.14,19.72,18.36a40.44,40.44,0,0,0,9.25,4l4.36-2.51Z"/><path class="cls-6" d="M260.82,210.78c0-19.56-13.73-43.34-30.67-53.12-8.49-4.91-16.18-5.36-21.73-2.12L193.69,164c-5.57,3.19-9,10.07-9,19.88,0,19.56,13.73,43.34,30.67,53.12,8.49,4.9,16.17,5.35,21.72,2.12l14.8-8.52C257.4,227.41,260.82,220.55,260.82,210.78Z"/><path class="cls-12" d="M260.82,210.78c0-19.56-13.73-43.34-30.67-53.12-8.49-4.91-16.18-5.36-21.73-2.12L193.69,164c-5.57,3.19-9,10.07-9,19.88,0,19.56,13.73,43.34,30.67,53.12,8.49,4.9,16.17,5.35,21.72,2.12l14.8-8.52C257.4,227.41,260.82,220.55,260.82,210.78Z"/><path class="cls-6" d="M215.33,166.19C232.27,176,246,199.75,246,219.31S232.27,246.8,215.33,237s-30.67-33.56-30.67-53.12S198.39,156.41,215.33,166.19Z"/><path class="cls-11" d="M228.31,244.93h.16c.51,0,1,.06,1.54.06h.24c.75,0,1.49-.05,2.21-.13h.08a15.76,15.76,0,0,0,1.82-.33l.75-.18c.48-.13.94-.29,1.4-.46s.69-.28,1-.43l.48-.24a16.09,16.09,0,0,0,4-2.85,19.74,19.74,0,0,1-8.18.48l-6.83,3.93C227.47,244.84,227.9,244.9,228.31,244.93Z"/><path class="cls-3" d="M223.6,160.39a10.78,10.78,0,0,0,3.18,6.93c14.61,13.42,25.3,35.23,25.3,53.69,0,13.45-5.65,23-14.87,26.21h0a16,16,0,0,0,3.38-1.53l6.79-3.92c7.22-4.16,11.51-13,11.51-24.69,0-18.46-10.69-40.27-25.29-53.69a10.75,10.75,0,0,1-3.18-6.93V129.25l-6.82,3.94-3.35-1.94,3.35,1.94Z"/><path class="cls-5" d="M226.78,167.32a10.78,10.78,0,0,1-3.18-6.93v-27.2l-3.35-1.94V162a6.48,6.48,0,0,0,.13,1.21c0,.1,0,.21.07.31a8.57,8.57,0,0,0,.37,1.26,11.45,11.45,0,0,0,.89,1.83c.08.15.18.28.27.42a10.82,10.82,0,0,0,.88,1.17c.21.23.42.44.64.64h0c.8.7,1.59,1.44,2.37,2.2.21.2.42.4.62.61.68.68,1.36,1.37,2,2.08l.3.32c.74.81,1.46,1.64,2.17,2.49l.55.67c.59.72,1.16,1.45,1.73,2.2.13.18.27.35.41.53.66.9,1.31,1.81,1.94,2.74l.45.67q.77,1.15,1.5,2.34c.15.23.29.46.43.69.58,1,1.15,1.94,1.69,2.92l.32.6c.45.83.88,1.67,1.3,2.52l.39.78c.49,1,1,2,1.41,3.07.06.13.11.27.17.4q.58,1.38,1.11,2.76c.11.28.21.56.31.84.39,1.05.76,2.1,1.1,3.16s.63,2.12.91,3.18l.18.67c.26,1,.5,2.07.71,3.1,0,.17.07.34.1.52.18.94.34,1.88.47,2.82,0,.17.06.34.08.51.14,1,.24,2,.32,3,0,.22,0,.44,0,.66.07,1,.11,2.05.11,3.06,0,6-1.19,11.05-3.31,14.92a19.36,19.36,0,0,1-1.55,2.4c-.28.37-.58.73-.88,1.07s-.6.66-.92,1a16.09,16.09,0,0,1-4,2.85l-.48.24c-.34.15-.68.3-1,.43s-.85.31-1.29.43l-.11,0-.75.18-.46.11c-.44.09-.9.17-1.36.22h-.08a20,20,0,0,1-2.21.13h-.57c-.4,0-.8,0-1.21-.07h-.16c-.41,0-.84-.09-1.27-.15l-4.36,2.51a28.06,28.06,0,0,0,7.44,1.08c.35,0,.68,0,1-.05s.91,0,1.32-.07l.78-.11c.49-.07,1-.14,1.42-.23l.69-.16.28-.08c.44-.11.87-.22,1.29-.35l.29-.1c9.22-3.17,14.87-12.76,14.87-26.21C252.08,202.55,241.39,180.74,226.78,167.32Z"/><path class="cls-3" d="M208.26,158.91l.15-.06.22-.12,6.82-3.94a2.87,2.87,0,0,0,1.34-2.64V121.38L210,125.32v30.76A2.82,2.82,0,0,1,208.26,158.91Z"/><path class="cls-3" d="M200.1,154.85a26.56,26.56,0,0,1,4.88.46,1.31,1.31,0,0,0,1.64-1.32v-3.06a21.35,21.35,0,0,0-7.18,1.3v2.66C199.66,154.88,199.87,154.85,200.1,154.85Z"/><path class="cls-5" d="M201,158.22c.79,0,1.59.11,2.42.23a23.89,23.89,0,0,1,2.38.48l.14,0H206a4.53,4.53,0,0,0,.78.13h.07a4.75,4.75,0,0,0,.66,0l.12,0a2.93,2.93,0,0,0,.6-.15h0a2.82,2.82,0,0,0,1.71-2.83V125.32h0l-3.35-2V154a1.31,1.31,0,0,1-1.64,1.32,26.56,26.56,0,0,0-4.88-.46c-.23,0-.44,0-.66,0v3.36l.71,0C200.42,158.23,200.68,158.21,201,158.22Z"/><path class="cls-6" d="M257.68,229.37c0-28.9-20.28-64-45.31-78.49-12.5-7.21-23.81-7.89-32-3.17l-13.68,7.9c-8.19,4.73-13.26,14.87-13.26,29.31,0,28.89,20.29,64,45.32,78.49,12.49,7.21,23.8,7.89,32,3.18l13.67-7.9C252.61,254,257.68,243.82,257.68,229.37Z"/><ellipse class="cls-4" cx="198.74" cy="211.08" rx="37" ry="64.09" transform="translate(-78.91 127.65) rotate(-30)"/><path class="cls-13" d="M244.07,237.25c0-28.9-20.29-64-45.32-78.49-12.52-7.23-23.85-7.9-32.05-3.16l-6.78,3.92c-8.21,4.73-13.3,14.88-13.3,29.34,0,28.9,20.29,64,45.32,78.49,12.52,7.22,23.84,7.9,32,3.16l6.82-3.94C239,261.83,244.07,251.69,244.07,237.25Z"/><path class="cls-1" d="M191.94,162.69c25,14.45,45.32,49.59,45.32,78.49S217,281.79,191.94,267.35s-45.32-49.59-45.32-78.49S166.91,148.24,191.94,162.69Z"/><path class="cls-5" d="M240.59,241.19c0-29.92-21.08-66.44-47-81.4-7.63-4.4-15-6.63-21.91-6.63a26.39,26.39,0,0,0-13.5,3.49c-2.26,1.32-11.4,6.54-13.72,7.9-9.31,5.45-14.85,16.91-14.85,32.18,0,29.92,21.08,66.44,47,81.4,7.63,4.4,15,6.64,21.91,6.64a26.39,26.39,0,0,0,13.58-3.54c2.23-1.31,11.26-6.48,13.55-7.8C235,268,240.59,256.51,240.59,241.19Z"/><path class="cls-3" d="M198.52,284.77c-6.91,0-14.28-2.24-21.91-6.64-25.92-15-47-51.48-47-81.4,0-21.69,11.17-35.71,28.44-35.71,6.91,0,14.28,2.24,21.91,6.64,25.92,15,47,51.48,47,81.4C227,270.75,215.8,284.77,198.52,284.77Z"/><path class="cls-11" d="M188.39,253.79a22,22,0,0,1-10.94-3.31C164.51,243,154,224.77,154,209.83,154,199,159.55,192,168.18,192a22,22,0,0,1,10.94,3.31c12.94,7.47,23.47,25.71,23.47,40.65C202.59,246.8,197,253.79,188.39,253.79Z"/><path class="cls-5" d="M130.6,304.67c0-29.92-21.08-66.44-47-81.4-7.63-4.4-15-6.64-21.92-6.64a26.44,26.44,0,0,0-13.5,3.5c-2.26,1.32-11.4,6.54-13.72,7.9-9.3,5.44-14.84,16.91-14.84,32.18,0,29.92,21.08,66.43,47,81.4,7.63,4.4,15,6.64,21.92,6.64a26.35,26.35,0,0,0,13.57-3.54c2.23-1.32,11.26-6.48,13.55-7.81C125,331.48,130.6,320,130.6,304.67Z"/><path class="cls-3" d="M88.54,348.25c-6.92,0-14.29-2.24-21.92-6.64-25.91-15-47-51.48-47-81.4,0-21.69,11.16-35.71,28.43-35.71,6.91,0,14.29,2.24,21.92,6.64,25.91,15,47,51.48,47,81.4C117,334.23,105.81,348.25,88.54,348.25Z"/><path class="cls-13" d="M113.62,312.53c0-28.9-20.29-64-45.32-78.49-12.52-7.23-23.85-7.9-32-3.15l-6.78,3.91c-8.22,4.73-13.3,14.88-13.3,29.34,0,28.9,20.29,64,45.32,78.49,12.51,7.23,23.84,7.9,32,3.16l6.82-3.94C108.54,337.12,113.62,327,113.62,312.53Z"/><path class="cls-1" d="M61.48,238c25,14.45,45.32,49.59,45.32,78.49s-20.29,40.61-45.31,26.16S16.17,293,16.17,264.14,36.46,223.53,61.48,238Z"/><path class="cls-6" d="M106.8,316.47c0-28.9-20.29-64-45.32-78.49-12.49-7.22-23.81-7.9-32-3.18l-13.69,7.9C7.61,247.44,2.54,257.57,2.54,272c0,28.9,20.29,64,45.31,78.49,12.5,7.21,23.81,7.9,32,3.18l13.68-7.89C101.73,341.05,106.8,330.91,106.8,316.47Z"/><path class="cls-4" d="M47.85,245.85c25,14.45,45.32,49.59,45.32,78.49S72.88,365,47.85,350.5,2.54,300.91,2.54,272,22.83,231.4,47.85,245.85Z"/><path class="cls-11" d="M15.28,262.29c-.37.15-.74.3-1.09.47s-.56.3-.84.46-.67.38-1,.6-.52.37-.78.56-.62.48-.91.74-.49.44-.72.67-.56.57-.82.87-.44.5-.65.77-.5.66-.73,1-.37.54-.55.83c0,.06-.07.13-.11.2-.19.31-.37.64-.55,1l-.15.31c-.14.27-.28.54-.41.82s-.21.5-.32.75-.13.32-.2.48-.12.3-.17.46c-.12.32-.23.65-.34,1s-.18.57-.27.87c-.15.52-.29,1.07-.42,1.62-.08.37-.16.76-.23,1.14,0,.21-.09.42-.12.63l-.12.69c-.08.56-.14,1.15-.2,1.74,0,.28-.07.55-.09.83,0,.11,0,.22,0,.32-.07,1-.11,1.94-.11,3A55.06,55.06,0,0,0,4.8,297.12c3.74,16.38,14.39,33.28,27.41,42.94A50.67,50.67,0,0,0,37,343.25l.67.37,1.14.62.88.43.93.44c.32.15.64.28.95.41l.83.34,1,.36c.26.1.53.19.79.27l1,.3.83.23.87.21c.38.09.76.16,1.14.22l.52.1.45.06,6.83-3.93a33.17,33.17,0,0,1-12-4.37c-18.58-10.72-33.63-36.78-33.63-58.22,0-8.68,2.48-15.26,6.66-19.32l-.66.18C15.86,262.05,15.57,262.17,15.28,262.29Z"/><path class="cls-3" d="M21.3,255.05a19.26,19.26,0,0,0-3,1.36l-6.79,3.92s0,0,0,0a20.58,20.58,0,0,1,9.79-2.66Z"/><path class="cls-5" d="M48.46,347.55a4.76,4.76,0,0,1-.52-.1c-.38-.06-.76-.13-1.14-.22l-.87-.21-.56-.14-.27-.09-1-.3c-.26-.08-.53-.17-.79-.27l-1-.36-.83-.34c-.31-.13-.63-.26-.95-.41l-.94-.45-.87-.42-1.15-.63-.66-.36a48.8,48.8,0,0,1-4.59-3.06A64.58,64.58,0,0,1,21,329.31a80.24,80.24,0,0,1-7.75-11.15,76.87,76.87,0,0,1-8.33-20.72c0-.11,0-.23-.07-.34A54.25,54.25,0,0,1,3.35,285c0-.93,0-1.85.1-2.74,0-.13,0-.27,0-.4l0-.27c.06-.75.14-1.49.24-2.21,0-.15,0-.3.07-.46s.08-.46.13-.7.12-.66.19-1,.14-.71.22-1,.21-.72.31-1.08c0-.13.07-.27.11-.41l.05-.15c.09-.3.18-.6.28-.88s.26-.69.4-1,.35-.87.54-1.28.29-.59.44-.88l.18-.34c.17-.3.33-.59.51-.87s.32-.52.49-.77l.23-.33.38-.54.31-.38.27-.34c.18-.22.37-.43.56-.63l.18-.2c.23-.24.47-.47.71-.7h0c.11-.1.23-.18.35-.28.29-.26.6-.5.91-.74s.51-.38.78-.56.66-.41,1-.6.55-.32.84-.46.72-.32,1.09-.47.58-.24.88-.34l.69-.2.51-.13c.3-.08.59-.17.9-.23s.88-.13,1.32-.19.6-.09.9-.11.55,0,.82,0v-3.36a20.58,20.58,0,0,0-9.79,2.66h0q-.63.36-1.23.78l-.21.15a19.68,19.68,0,0,0-3.22,2.84l-.32.36c-.29.34-.58.68-.85,1l-.25.35c-.45.62-.88,1.27-1.28,1.95-.15.24-.3.49-.44.75s-.35.66-.51,1-.33.7-.48,1.05-.31.7-.44,1.06c-.22.56-.42,1.14-.61,1.73-.09.28-.17.57-.25.86-.15.5-.28,1-.4,1.54-.06.25-.13.5-.18.76-.16.77-.3,1.55-.42,2.35,0,.19,0,.39-.07.59-.08.67-.15,1.35-.21,2.05,0,.25,0,.49-.05.75C0,283.2,0,284.1,0,285a60.78,60.78,0,0,0,2.78,17.45A78.62,78.62,0,0,0,6,311.28q.94,2.18,2,4.31a87.43,87.43,0,0,0,7.5,12.21c5.64,7.65,12.42,14.14,19.72,18.35a40.05,40.05,0,0,0,9.25,4l4.36-2.51Z"/><path class="cls-6" d="M78.52,315.88c0-19.56-13.73-43.34-30.67-53.12-8.49-4.9-16.18-5.35-21.73-2.12-1.69,1-13,7.51-14.73,8.48-5.57,3.19-9,10.07-9,19.88,0,19.56,13.73,43.34,30.67,53.12,8.49,4.9,16.17,5.35,21.72,2.13,1.69-1,13.09-7.54,14.8-8.53C75.1,332.52,78.52,325.65,78.52,315.88Z"/><path class="cls-12" d="M78.52,315.88c0-19.56-13.73-43.34-30.67-53.12-8.49-4.9-16.18-5.35-21.73-2.12-1.69,1-13,7.51-14.73,8.48-5.57,3.19-9,10.07-9,19.88,0,19.56,13.73,43.34,30.67,53.12,8.49,4.9,16.17,5.35,21.72,2.13,1.69-1,13.09-7.54,14.8-8.53C75.1,332.52,78.52,325.65,78.52,315.88Z"/><ellipse class="cls-6" cx="33.03" cy="306.71" rx="25.04" ry="43.37" transform="translate(-148.93 57.61) rotate(-30)"/><ellipse class="cls-11" cx="31.83" cy="307.46" rx="19.43" ry="33.66" transform="matrix(0.87, -0.5, 0.5, 0.87, -149.47, 57.11)"/><path class="cls-5" d="M44.85,294,30.77,308.06,14,278.93c4.3-2.5,10.25-2.15,16.81,1.65A46.33,46.33,0,0,1,44.85,294Z"/><path class="cls-3" d="M54.58,321.82c0,7.58-2.67,12.92-7,15.38L30.77,308.06,44.85,294C50.74,302.4,54.58,312.71,54.58,321.82Z"/><path class="cls-5" d="M47.6,337.2c-4.31,2.5-10.25,2.15-16.83-1.64a46,46,0,0,1-14.06-13.44l14.06-14.06Z"/><path class="cls-3" d="M30.77,308.06,16.71,322.12C10.81,313.71,7,303.43,7,294.33c0-7.6,2.67-12.92,7-15.4Z"/><path class="cls-11" d="M50.17,347.76h.16c.51,0,1,.06,1.53.06h.25c.75,0,1.49-.05,2.21-.13h.07a17.92,17.92,0,0,0,1.83-.33l.75-.19c.48-.13.94-.28,1.4-.45s.69-.28,1-.43l.48-.24a16.09,16.09,0,0,0,4-2.85,19.75,19.75,0,0,1-8.18.48l-6.83,3.93Z"/><path class="cls-3" d="M45.46,263.22a10.75,10.75,0,0,0,3.18,6.93c14.61,13.42,25.3,35.23,25.3,53.69,0,13.45-5.65,23-14.87,26.21h0a16.59,16.59,0,0,0,3.38-1.53l6.79-3.92c7.22-4.16,11.51-13,11.51-24.69,0-18.47-10.69-40.28-25.3-53.7a10.77,10.77,0,0,1-3.17-6.93v-27.2L45.46,236l-3.35-1.94L45.46,236Z"/><path class="cls-5" d="M48.64,270.15a10.75,10.75,0,0,1-3.18-6.93V236l-3.35-1.94v30.77a6.58,6.58,0,0,0,.13,1.22c0,.1,0,.2.07.31a8.82,8.82,0,0,0,.37,1.25,11.5,11.5,0,0,0,.88,1.84l.28.42a10.82,10.82,0,0,0,.88,1.17,7.57,7.57,0,0,0,.64.63h0c.8.7,1.59,1.44,2.37,2.2l.62.6c.68.68,1.36,1.38,2,2.09l.29.31c.74.81,1.47,1.65,2.18,2.5l.55.67c.58.72,1.16,1.45,1.73,2.2l.4.53c.67.9,1.32,1.81,1.95,2.74l.45.66c.51.78,1,1.56,1.5,2.35l.43.68c.58,1,1.15,1.94,1.69,2.93.11.2.21.4.32.59.45.84.88,1.68,1.3,2.52l.39.79c.49,1,1,2,1.41,3.07.06.13.11.26.17.4q.58,1.38,1.11,2.76c.11.28.21.56.31.84.39,1.05.76,2.1,1.1,3.16s.63,2.11.91,3.17l.18.68c.26,1,.5,2.07.71,3.1,0,.17.06.34.1.51.18.95.34,1.89.47,2.83,0,.17.06.34.08.51.14,1,.24,2,.32,3,0,.22,0,.44,0,.66.07,1,.11,2.05.11,3.06,0,6-1.19,11.05-3.31,14.91a20.27,20.27,0,0,1-1.55,2.41c-.29.37-.58.73-.88,1.07s-.61.66-.92,1a16.09,16.09,0,0,1-4,2.85l-.48.24c-.34.15-.68.3-1,.43s-.85.3-1.29.43l-.11,0-.75.19-.46.11c-.45.09-.9.16-1.37.22h-.07c-.72.08-1.46.12-2.21.13h-.57c-.4,0-.81,0-1.21-.06h-.16l-1.27-.15-4.36,2.51A28,28,0,0,0,52,351.19c.35,0,.68,0,1-.05s.9,0,1.32-.07.52-.07.78-.11c.49-.06,1-.13,1.42-.22l.69-.17.28-.07c.43-.11.87-.22,1.28-.36l.3-.09c9.22-3.17,14.87-12.76,14.87-26.21C73.94,305.38,63.25,283.57,48.64,270.15Z"/><path class="cls-3" d="M30.12,261.73l.15-.05.22-.12c.83-.48,6.13-3.54,6.82-3.95A2.86,2.86,0,0,0,38.65,255V224.21l-6.82,3.93v30.77A2.79,2.79,0,0,1,30.12,261.73Z"/><path class="cls-3" d="M22,257.67a26.4,26.4,0,0,1,4.87.47,1.31,1.31,0,0,0,1.65-1.33v-3.05a21.6,21.6,0,0,0-7.18,1.29v2.66C21.52,257.71,21.73,257.67,22,257.67Z"/><path class="cls-5" d="M22.81,261.05a22.9,22.9,0,0,1,2.43.23c.78.11,1.57.28,2.38.47l.14,0,.09,0h0a4.53,4.53,0,0,0,.78.13h.07a3.61,3.61,0,0,0,.66,0l.12,0a3.1,3.1,0,0,0,.6-.15l0,0a2.79,2.79,0,0,0,1.71-2.82V228.14h0l-3.35-1.95v30.62a1.31,1.31,0,0,1-1.65,1.33,26.4,26.4,0,0,0-4.87-.47c-.23,0-.44,0-.66,0v3.36H22C22.28,261.06,22.54,261,22.81,261.05Z"/><path class="cls-6" d="M34,209.37c-1.23-.71-2.94-.61-4.82.48a15.05,15.05,0,0,0-6.81,11.8c0,2.19.77,3.72,2,4.43L51.58,241.8l9.61-16.71Z"/><path class="cls-12" d="M34,209.37c-1.23-.71-2.94-.61-4.82.48a15.05,15.05,0,0,0-6.81,11.8c0,2.19.77,3.72,2,4.43L51.58,241.8l9.61-16.71Z"/><path class="cls-12" d="M23.14,217.51a12.46,12.46,0,0,0-.81,4.14c0,2.19.77,3.72,2,4.43L51.58,241.8l3.4-5.91Z"/><path class="cls-6" d="M49.59,237.39a15.08,15.08,0,0,1,6.81-11.81c1.87-1.07,3.56-1.18,4.79-.49s2,2.24,2,4.43a15,15,0,0,1-6.82,11.8c-1.88,1.09-3.58,1.19-4.82.48S49.59,239.56,49.59,237.39Z"/><path class="cls-14" d="M49.59,237.39a15.08,15.08,0,0,1,6.81-11.81c1.87-1.07,3.56-1.18,4.79-.49s2,2.24,2,4.43a15,15,0,0,1-6.82,11.8c-1.88,1.09-3.58,1.19-4.82.48S49.59,239.56,49.59,237.39Z"/><path class="cls-3" d="M52.54,235.69A8.55,8.55,0,0,1,56.4,229a2.75,2.75,0,0,1,2.72-.28,2.7,2.7,0,0,1,1.15,2.51,8.53,8.53,0,0,1-3.87,6.7,2.35,2.35,0,0,1-3.86-2.23Z"/><path class="cls-11" d="M58.46,230.21a3.51,3.51,0,0,0-.41-1.73,3.59,3.59,0,0,0-1.65.51,8.55,8.55,0,0,0-3.86,6.7,3.4,3.4,0,0,0,.41,1.73,3.56,3.56,0,0,0,1.64-.51A8.56,8.56,0,0,0,58.46,230.21Z"/><path class="cls-6" d="M211.15,107.07c-1.23-.72-2.93-.61-4.81.47a15.07,15.07,0,0,0-6.82,11.81c0,2.19.77,3.72,2,4.42l27.24,15.73,9.6-16.71Z"/><path class="cls-12" d="M211.15,107.07c-1.23-.72-2.93-.61-4.81.47a15.07,15.07,0,0,0-6.82,11.81c0,2.19.77,3.72,2,4.42l27.24,15.73,9.6-16.71Z"/><path class="cls-12" d="M200.34,115.21a12.23,12.23,0,0,0-.82,4.14c0,2.19.77,3.72,2,4.42l27.24,15.73,3.39-5.91Z"/><path class="cls-6" d="M226.78,135.09a15.05,15.05,0,0,1,6.82-11.81c1.86-1.08,3.55-1.19,4.78-.49s2,2.23,2,4.43A15.07,15.07,0,0,1,233.6,139c-1.89,1.09-3.59,1.19-4.82.48S226.78,137.26,226.78,135.09Z"/><path class="cls-14" d="M226.78,135.09a15.05,15.05,0,0,1,6.82-11.81c1.86-1.08,3.55-1.19,4.78-.49s2,2.23,2,4.43A15.07,15.07,0,0,1,233.6,139c-1.89,1.09-3.59,1.19-4.82.48S226.78,137.26,226.78,135.09Z"/><path class="cls-3" d="M229.73,133.38a8.53,8.53,0,0,1,3.87-6.69,2.35,2.35,0,0,1,3.86,2.23,8.58,8.58,0,0,1-3.86,6.7,2.36,2.36,0,0,1-3.87-2.24Z"/><path class="cls-11" d="M235.65,127.91a3.4,3.4,0,0,0-.41-1.73,3.44,3.44,0,0,0-1.64.51,8.53,8.53,0,0,0-3.87,6.69,3.51,3.51,0,0,0,.41,1.73,3.48,3.48,0,0,0,1.65-.51A8.55,8.55,0,0,0,235.65,127.91Z"/><path class="cls-6" d="M232.13,50.26l-29.4-17A57.78,57.78,0,0,0,196,23.21C211.77,25.94,224.24,35.51,232.13,50.26Z"/><path class="cls-14" d="M232.13,50.26l-29.4-17A57.78,57.78,0,0,0,196,23.21C211.77,25.94,224.24,35.51,232.13,50.26Z"/><path class="cls-3" d="M226.69,123.44A134.94,134.94,0,0,0,229,99.33c0-54.68-38.4-76.85-85.76-49.51S57.49,143.66,57.49,198.35a95.48,95.48,0,0,0,2.31,21.47l-11,6.38a109.43,109.43,0,0,1-2-21.63c0-61.56,43.21-136.41,96.52-167.19s96.53-5.82,96.53,55.73a150,150,0,0,1-2,24l-11,6.36"/><path class="cls-11" d="M226.69,123.44A135,135,0,0,0,229,99.33c0-36.07-16.71-58-41.67-60.89,7.81,10.41,12.29,25.29,12.29,44a134.45,134.45,0,0,1-2.3,24.06Z"/><path class="cls-5" d="M209.74,29.65c-17.32-9-40.73-7.14-66.49,7.74C89.93,68.16,46.72,143,46.72,204.57a110.22,110.22,0,0,0,2,21.63L19.38,209.26a109,109,0,0,1-2-21.65c0-61.56,43.21-136.41,96.53-167.18C140.5,5,164.6,3.6,182.06,13.67Z"/><path class="cls-11" d="M33.73,200.87a4.66,4.66,0,0,1-2.3-.69,10.94,10.94,0,0,1-4.94-8.56c0-2.28,1.17-3.76,3-3.76a4.68,4.68,0,0,1,2.3.7,10.91,10.91,0,0,1,4.94,8.56C36.72,199.4,35.55,200.87,33.73,200.87Z"/><path class="cls-6" d="M214.1,23.76A57.06,57.06,0,0,0,186.35,17c-14.74,0-30.45,4.75-46.72,14.14C102,52.85,69.14,95.91,52,141.33l-29.38-17c17.11-45.42,50-88.48,87.6-110.21C126.52,4.77,142.23,0,157,0A56.89,56.89,0,0,1,185.7,7.34Z"/><path class="cls-15" d="M214.1,23.76A57.06,57.06,0,0,0,186.35,17c-14.74,0-30.45,4.75-46.72,14.14C102,52.85,69.14,95.91,52,141.33l-29.38-17c17.11-45.42,50-88.48,87.6-110.21C126.52,4.77,142.23,0,157,0A56.89,56.89,0,0,1,185.7,7.34Z"/><path class="cls-6" d="M232.12,50.25C222.7,32.62,206.71,22.4,186.35,22.4c-13.78,0-28.59,4.5-44,13.42C105.44,57.11,73.28,99.49,56.73,144L52,141.33c17.11-45.42,50-88.48,87.6-110.21C155.9,21.73,171.61,17,186.35,17c21.46,0,38.51,10.14,49,27.75Z"/></g><path id="Musical_note" data-name="Musical note" class="cls-6" d="M358.36,34l-4.9,16.15a4.11,4.11,0,0,0-1.33-.69,4.42,4.42,0,1,0,3,5.51l4.39-14.48,15.74.59h0l-4.33,14.36a4.26,4.26,0,0,0-1.34-.69,4.42,4.42,0,1,0,3,5.51h0l7.23-24Z"/><path id="Musical_note-2" data-name="Musical note" class="cls-6" d="M346.55,281.44l-4.9,16.15a4.26,4.26,0,0,0-1.34-.69,4.42,4.42,0,1,0,3,5.5l4.4-14.47,15.73.59h0l-4.33,14.36a4.32,4.32,0,0,0-1.33-.69,4.42,4.42,0,1,0,2.95,5.51h0l7.23-24Z"/><path id="Musical_note-3" data-name="Musical note" class="cls-6" d="M315.43,91.26a7.73,7.73,0,0,1,3.18-.79A16.86,16.86,0,0,1,323,91a30.36,30.36,0,0,0,5.8,1,7.31,7.31,0,0,0,5.41-1.89,7.66,7.66,0,0,1-3.39-.44c-2.58-1-4.66-3.66-7-5.13-3.47-2.19-6.9-2-11.12-1,0,3.6-.07,7.21-.1,10.8l-.09,8.48c0,.27-.14,3.84-.14,3.84a7.46,7.46,0,0,0-3.14-.77,6.06,6.06,0,1,0,6,6.11Z"/><path id="Musical_note-4" data-name="Musical note" class="cls-6" d="M413.27,242.78a7.76,7.76,0,0,1,3.27.12,16.53,16.53,0,0,1,4,1.69,29.73,29.73,0,0,0,5.3,2.56,7.25,7.25,0,0,0,5.71-.31,7.58,7.58,0,0,1-3.13-1.37c-2.21-1.64-3.46-4.8-5.29-6.86-2.72-3.07-6.07-3.85-10.42-4-1,3.45-2.06,6.9-3.1,10.35l-2.43,8.11c-.08.26-1.2,3.66-1.2,3.66a7.39,7.39,0,0,0-2.81-1.62,6.06,6.06,0,1,0,4.09,7.54Z"/><path id="Musical_note-5" data-name="Musical note" class="cls-6" d="M270.06,27.11a8.44,8.44,0,0,1,2.05-2.9,18.7,18.7,0,0,1,3.95-2.68,32.48,32.48,0,0,0,5.47-3.28,8,8,0,0,0,3.12-5.38,8.31,8.31,0,0,1-3.1,2c-2.81,1-6.42.29-9.38.73-4.41.65-7.11,3.22-9.83,7.09,2.56,3,5,6,7.56,9l5.92,7c.19.22,2.61,3.26,2.61,3.26a7.94,7.94,0,0,0-3.14,1.59,6.58,6.58,0,1,0,9.28.78Z"/><g id="Controls"><g id="Play_Pause" data-name="Play Pause"><g id="Box"><g id="Speech_Bubble" data-name="Speech Bubble"><path class="cls-6" d="M358.35,123.14l-26.22,15.15a1.85,1.85,0,0,0-.84,1.45V170a1.84,1.84,0,0,0,.85,1.45l3,1.73a1.9,1.9,0,0,0,1.69,0L363.05,158a1.86,1.86,0,0,0,.85-1.46V126.28a1.82,1.82,0,0,0-.85-1.45l-3-1.69A1.87,1.87,0,0,0,358.35,123.14Z"/><path class="cls-6" d="M336,172.68V142.39a1.85,1.85,0,0,1,.84-1.46l26.21-15.14c.47-.27.85-.05.85.49v30.28a1.86,1.86,0,0,1-.85,1.46l-26.21,15.14C336.37,173.43,336,173.21,336,172.68Z"/><path class="cls-6" d="M336,172.68V142.39a1.85,1.85,0,0,1,.84-1.46l26.21-15.14c.47-.27.85-.05.85.49v30.28a1.86,1.86,0,0,1-.85,1.46l-26.21,15.14C336.37,173.43,336,173.21,336,172.68Z"/><path class="cls-14" d="M336.84,173.16a1.93,1.93,0,0,1-1.69,0l-3-1.73a1.84,1.84,0,0,1-.85-1.45V139.74a1.7,1.7,0,0,1,.27-.86l4.69,2.68a1.63,1.63,0,0,0-.25.83v30.28C336,173.17,336.34,173.45,336.84,173.16Z"/><path class="cls-16" d="M363.88,126.12c-.06-.42-.41-.57-.83-.33l-26.21,15.14a1.79,1.79,0,0,0-.59.63l-4.7-2.68a1.76,1.76,0,0,1,.58-.6l26.22-15.14a1.84,1.84,0,0,1,1.68,0l3,1.68A1.86,1.86,0,0,1,363.88,126.12Z"/></g></g><path class="cls-17" d="M360.22,143.45c0,7.63-4.64,16.49-10.36,19.79s-10.35-.2-10.35-7.83,4.63-16.48,10.35-19.79S360.22,135.83,360.22,143.45Z"/><path class="cls-5" d="M348.46,145.92v8.83a1.39,1.39,0,0,1-.63,1.09l-1.7,1c-.35.21-.64,0-.64-.36v-8.82a1.4,1.4,0,0,1,.64-1.1l1.7-1C348.18,145.35,348.46,145.52,348.46,145.92Z"/><path class="cls-5" d="M354.4,142.49v8.83a1.4,1.4,0,0,1-.64,1.09l-1.7,1c-.35.2-.63,0-.63-.37v-8.82a1.39,1.39,0,0,1,.63-1.1l1.71-1C354.11,141.93,354.4,142.09,354.4,142.49Z"/></g><g id="Next"><g id="Box-2" data-name="Box"><g id="Speech_Bubble-2" data-name="Speech Bubble"><path class="cls-6" d="M388.78,109.33l-21,12.11a1.47,1.47,0,0,0-.67,1.16v24.2a1.47,1.47,0,0,0,.67,1.16l2.42,1.39a1.53,1.53,0,0,0,1.35,0l21-12.11a1.5,1.5,0,0,0,.67-1.17V111.83a1.45,1.45,0,0,0-.68-1.16l-2.41-1.35A1.49,1.49,0,0,0,388.78,109.33Z"/><path class="cls-6" d="M370.9,149V124.72a1.49,1.49,0,0,1,.68-1.17l21-12.11c.37-.21.67,0,.67.39v24.23a1.5,1.5,0,0,1-.67,1.17l-21,12.11C371.2,149.55,370.9,149.38,370.9,149Z"/><path class="cls-6" d="M370.9,149V124.72a1.49,1.49,0,0,1,.68-1.17l21-12.11c.37-.21.67,0,.67.39v24.23a1.5,1.5,0,0,1-.67,1.17l-21,12.11C371.2,149.55,370.9,149.38,370.9,149Z"/><path class="cls-14" d="M371.58,149.34a1.55,1.55,0,0,1-1.36,0L367.81,148a1.47,1.47,0,0,1-.67-1.16V122.6a1.35,1.35,0,0,1,.21-.68l3.75,2.14a1.4,1.4,0,0,0-.2.66V149C370.9,149.34,371.18,149.57,371.58,149.34Z"/><path class="cls-16" d="M393.21,111.71c0-.34-.33-.46-.66-.27l-21,12.11a1.39,1.39,0,0,0-.48.51l-3.75-2.14a1.25,1.25,0,0,1,.46-.48l21-12.12a1.53,1.53,0,0,1,1.35,0l2.41,1.35A1.46,1.46,0,0,1,393.21,111.71Z"/></g></g><path class="cls-5" d="M388,122.51v8.83a1.39,1.39,0,0,1-.63,1.09l-1.7,1c-.35.2-.63,0-.63-.37v-8.82a1.42,1.42,0,0,1,.63-1.1l1.7-1C387.74,122,388,122.11,388,122.51Z"/><path class="cls-5" d="M376.1,129.49v8.65c0,.64.34.77.76.28l8-9.21c.42-.49.24-.89-.4-.89h-7.17A1.17,1.17,0,0,0,376.1,129.49Z"/></g><g id="Previews"><g id="Box-3" data-name="Box"><g id="Speech_Bubble-3" data-name="Speech Bubble"><path class="cls-6" d="M322.21,147.76l-21,12.12a1.47,1.47,0,0,0-.67,1.16v24.2a1.45,1.45,0,0,0,.68,1.16l2.41,1.39a1.53,1.53,0,0,0,1.35,0l21-12.11a1.5,1.5,0,0,0,.67-1.17V150.27a1.47,1.47,0,0,0-.67-1.16l-2.42-1.35A1.53,1.53,0,0,0,322.21,147.76Z"/><path class="cls-6" d="M304.33,187.39V163.16A1.51,1.51,0,0,1,305,162l21-12.11c.37-.21.67,0,.67.39V174.5a1.5,1.5,0,0,1-.67,1.17l-21,12.11C304.64,188,304.33,187.82,304.33,187.39Z"/><path class="cls-6" d="M304.33,187.39V163.16A1.51,1.51,0,0,1,305,162l21-12.11c.37-.21.67,0,.67.39V174.5a1.5,1.5,0,0,1-.67,1.17l-21,12.11C304.64,188,304.33,187.82,304.33,187.39Z"/><path class="cls-14" d="M305,187.78a1.56,1.56,0,0,1-1.35,0l-2.41-1.39a1.45,1.45,0,0,1-.68-1.16V161a1.35,1.35,0,0,1,.21-.68l3.75,2.14a1.4,1.4,0,0,0-.2.66v24.23C304.33,187.78,304.61,188,305,187.78Z"/><path class="cls-16" d="M326.64,150.15c-.05-.34-.33-.46-.66-.27L305,162a1.39,1.39,0,0,0-.48.51l-3.75-2.14a1.25,1.25,0,0,1,.46-.48l21-12.12a1.53,1.53,0,0,1,1.35,0l2.41,1.35A1.48,1.48,0,0,1,326.64,150.15Z"/></g></g><path class="cls-5" d="M312.17,166.54v8.82a1.41,1.41,0,0,1-.64,1.1l-1.7,1c-.35.2-.63,0-.63-.36v-8.83a1.39,1.39,0,0,1,.63-1.09l1.71-1C311.89,166,312.17,166.13,312.17,166.54Z"/><path class="cls-5" d="M321.79,169.76v-9c0-.69-.38-.83-.83-.31l-8.53,9.63c-.46.51-.27.93.42.93h7.68A1.25,1.25,0,0,0,321.79,169.76Z"/></g></g><g id="Now_Playing_Box" data-name="Now Playing Box"><g id="Box-4" data-name="Box"><g id="Speech_Bubble-4" data-name="Speech Bubble"><path class="cls-5" d="M391.72,154.39,300,207.33a1.87,1.87,0,0,0-.84,1.46v58.44a1.82,1.82,0,0,0,.85,1.45l3,1.73a1.9,1.9,0,0,0,1.69,0l91.68-52.94a1.86,1.86,0,0,0,.85-1.46V157.52a1.85,1.85,0,0,0-.85-1.45l-3-1.69A1.87,1.87,0,0,0,391.72,154.39Z"/><path class="cls-3" d="M397.25,157.37c-.06-.42-.41-.57-.83-.33L304.74,210a1.64,1.64,0,0,0-.59.63l-4.7-2.68a1.86,1.86,0,0,1,.58-.6l91.69-52.94a1.9,1.9,0,0,1,1.69,0l3,1.69A1.84,1.84,0,0,1,397.25,157.37Z"/><path class="cls-5" d="M303.9,269.92V211.43a1.85,1.85,0,0,1,.84-1.45L396.42,157c.47-.27.85,0,.85.48V216a1.86,1.86,0,0,1-.85,1.46l-91.68,52.94C304.28,270.67,303.9,270.46,303.9,269.92Z"/><path class="cls-18" d="M304.74,270.41a2,2,0,0,1-1.69,0l-3-1.74a1.82,1.82,0,0,1-.85-1.45V208.79a1.77,1.77,0,0,1,.27-.86l4.69,2.68a1.63,1.63,0,0,0-.25.82v58.49C303.9,270.41,304.24,270.69,304.74,270.41Z"/></g></g><path class="cls-19" d="M315.55,256.3a.07.07,0,0,1-.06,0,0,0,0,0,1,0-.05v-.34l-1,.61h-.07a.08.08,0,0,1,0-.05v-.35a.33.33,0,0,1,0-.17l1-1.82a.18.18,0,0,1,.06-.08.15.15,0,0,1,.06,0l.51-.29a0,0,0,0,1,.06,0s0,0,0,.05V255l.29-.17h.06a.05.05,0,0,1,0,0v.35a.13.13,0,0,1,0,.08l-.06.07-.29.16v.34a.13.13,0,0,1,0,.08l-.06.06Zm-.07-.92v-.61l-.49.89Z"/><path class="cls-19" d="M317.52,253.91a.13.13,0,0,1,0,.08l-.06.07-.44.25h-.06a.05.05,0,0,1,0,0v-.44a.11.11,0,0,1,0-.07l.06-.07.44-.25a.07.07,0,0,1,.06,0,.05.05,0,0,1,0,0Zm0,1.16a.11.11,0,0,1,0,.08l-.06.07-.44.25h-.06a.05.05,0,0,1,0,0V255a.11.11,0,0,1,0-.07l.06-.07.44-.25a.07.07,0,0,1,.06,0,.05.05,0,0,1,0,0Z"/><path class="cls-19" d="M319.19,254.2h-.06a.05.05,0,0,1,0-.05v-.34l-1,.6a.06.06,0,0,1-.07,0s0,0,0,0V254a.33.33,0,0,1,0-.17l1-1.83a.6.6,0,0,1,.13-.13l.5-.29h.06a.05.05,0,0,1,0,0v1.28l.28-.17s.05,0,.06,0a0,0,0,0,1,0,.05v.35a.13.13,0,0,1,0,.08.09.09,0,0,1-.06.06l-.28.17v.34a.11.11,0,0,1,0,.07l-.06.07Zm-.07-.92v-.61l-.48.89Z"/><path class="cls-19" d="M320.73,253.23a.08.08,0,0,1,0,0l.71-2.09-1,.57s-.05,0-.07,0,0,0,0-.05v-.35a.13.13,0,0,1,0-.08s0,0,.07-.06l1.58-.91a0,0,0,0,1,.06,0s0,0,0,0v.31a.92.92,0,0,1-.05.2l-.72,2.09a.3.3,0,0,1,0,.08.17.17,0,0,1-.06.06l-.46.26s0,0-.06,0S320.73,253.25,320.73,253.23Z"/><path class="cls-19" d="M380.91,217.77a1.09,1.09,0,0,1-.08.39,1.92,1.92,0,0,1-.22.39,2.45,2.45,0,0,1-.31.34,2.47,2.47,0,0,1-.38.28,1.35,1.35,0,0,1-.38.16.85.85,0,0,1-.31,0,.34.34,0,0,1-.22-.14.51.51,0,0,1-.08-.3,1.23,1.23,0,0,1,0-.2,1.59,1.59,0,0,1,.07-.2,1.42,1.42,0,0,1,.08-.18,1.3,1.3,0,0,1,.08-.17l.63-1.22,0-.06a.17.17,0,0,1,.06-.06l.53-.31h.05s0,0,0,0a0,0,0,0,1,0,0v0l-.43.83a1.22,1.22,0,0,1,.33-.1.6.6,0,0,1,.27,0,.32.32,0,0,1,.18.14A.5.5,0,0,1,380.91,217.77Zm-1.37.78a.12.12,0,0,0,0,.11.14.14,0,0,0,.08.05h.12l.14-.06.14-.1.12-.13a.64.64,0,0,0,.08-.14.42.42,0,0,0,0-.15.16.16,0,0,0,0-.11.14.14,0,0,0-.08,0h-.12l-.14.06-.14.1-.12.13a1.09,1.09,0,0,0-.08.15A.27.27,0,0,0,379.54,218.55Z"/><path class="cls-19" d="M382,216.7a.13.13,0,0,1,0,.08.17.17,0,0,1-.06.06l-.44.26h-.06a.05.05,0,0,1,0-.05v-.44a.11.11,0,0,1,0-.07l.06-.07.44-.25a.07.07,0,0,1,.06,0,.05.05,0,0,1,0,.05Zm0,1.16a.13.13,0,0,1,0,.08l-.06.07-.44.25h-.06a.05.05,0,0,1,0-.05v-.44a.11.11,0,0,1,0-.07l.06-.07.44-.25a.07.07,0,0,1,.06,0,.05.05,0,0,1,0,.05Z"/><path class="cls-19" d="M384.21,214.34a.07.07,0,0,1,.06,0,0,0,0,0,1,0,0v.35a.16.16,0,0,1,0,.08.43.43,0,0,1,0,.07l-.4.64a.68.68,0,0,1,.42,0c.11,0,.16.15.16.32a1.14,1.14,0,0,1-.26.72,2.45,2.45,0,0,1-.72.6,1.84,1.84,0,0,1-.42.19.92.92,0,0,1-.31,0,.29.29,0,0,1-.27-.3.14.14,0,0,1,0-.06l.05-.05.42-.24c.05,0,.08,0,.11,0l.08,0h.12l.2-.09a1.11,1.11,0,0,0,.26-.2.37.37,0,0,0,.11-.23c0-.08,0-.12-.11-.11a.61.61,0,0,0-.26.1l-.28.16h-.06a.05.05,0,0,1,0-.05V216a.16.16,0,0,1,0-.08.59.59,0,0,0,0-.08l.36-.55-.87.5h-.06a.05.05,0,0,1,0-.05v-.35a.13.13,0,0,1,0-.08.12.12,0,0,1,.06-.06Z"/><path class="cls-19" d="M385.86,213.35a1.26,1.26,0,0,1,.43-.17.49.49,0,0,1,.3,0,.37.37,0,0,1,.17.18.74.74,0,0,1,.07.31,2.71,2.71,0,0,1,0,.29,2.81,2.81,0,0,1,0,.3,1.33,1.33,0,0,1-.07.38,1.65,1.65,0,0,1-.17.39,2,2,0,0,1-.3.37,2.09,2.09,0,0,1-.43.32,1.37,1.37,0,0,1-.42.17.58.58,0,0,1-.3,0,.37.37,0,0,1-.18-.19.94.94,0,0,1-.07-.3v-.59a1.89,1.89,0,0,1,.07-.39,1.46,1.46,0,0,1,.18-.38,2,2,0,0,1,.3-.37A2.32,2.32,0,0,1,385.86,213.35Zm.36,1.27a5.23,5.23,0,0,0,0-.56.58.58,0,0,0,0-.14.19.19,0,0,0-.05-.09l-.11,0a.56.56,0,0,0-.17.07.7.7,0,0,0-.16.13.49.49,0,0,0-.11.14.94.94,0,0,0-.06.15,1,1,0,0,0,0,.17,5.23,5.23,0,0,0,0,.56.59.59,0,0,0,0,.14.1.1,0,0,0,.06.08.13.13,0,0,0,.11,0,.46.46,0,0,0,.16-.06.78.78,0,0,0,.28-.27l.06-.16A.88.88,0,0,0,386.22,214.62Z"/><path class="cls-20" d="M326.42,247l48.32-27.9c.8-.46,1.44-.13,1.44.73a3.08,3.08,0,0,1-1.44,2.38l-48.32,27.9c-.79.45-1.43.13-1.43-.73A3.06,3.06,0,0,1,326.42,247Z"/><path class="cls-19" d="M326.42,247,362.71,226c.79-.46,1.43-.14,1.43.72a3.09,3.09,0,0,1-1.43,2.39l-36.29,20.95c-.79.45-1.43.13-1.43-.73A3.06,3.06,0,0,1,326.42,247Z"/><path class="cls-6" d="M393.22,182.68,389,185.15c-1.76,1-4.84,2.93-6.6,2.45-1.48-.41-2.61-2.4-4.66-1.22-1.29.75-2.71,5.32-5.22,6.76s-4-2.64-4.82-4.74-2.24-6.06-5.22-4.34-4.54,7.76-6.44,12.2-4.38,8.75-7.43,10.51c-3.6,2.08-6.07,1.07-7.77,2s-3.1,4.07-5,5.87c-1.68,1.62-4.27,3.2-5.76,2s-2.57-4.28-4.06-3.42-2.71,5.83-4.14,8.33-3,4-7.19,6.41l-7.93,4.58v.57l3.42-2c1.71-1,4.11-2.29,5.73-1.61s1.67,1.29,3.1.47,2-2,3-3.61a9.11,9.11,0,0,1,2.75-3.11c1.05-.6,2.38,0,3.2.81s1.65,1.66,2.88.95a8.63,8.63,0,0,0,2.88-3.72c.79-1.55,1.23-2.79,2.12-3.3a4.61,4.61,0,0,1,3.1-.27,6.87,6.87,0,0,0,4.8-1c2.09-1.21,4.5-3.32,7.54-8.74l4.62-2.67c3.35-1.94,5.67-3.06,7.21-2.7,1.93.44,4.56,4.13,7.44,2.47s3.7-6,5.13-8.86a12.23,12.23,0,0,1,5.82-6.26l11.73-6.77Z"/><path class="cls-14" d="M367.66,205.3c-1.74-.66-3.3-2.34-4.56-2.63-1.54-.36-3.86.76-7.21,2.7L351.27,208c2.67-4.77,5.19-12.24,6.14-15.2a39.69,39.69,0,0,1,1.42-3.76,16.13,16.13,0,0,1,2.12-3.7c1.48-1.55,2.6-1.72,3.33.08s.19,7.16.31,11.71S366,204.27,367.66,205.3Z"/><path class="cls-14" d="M330.07,216.71c1.49,1.18,4.08-.4,5.76-2,1.86-1.8,3.27-4.89,5-5.87s4.17,0,7.77-2a11.44,11.44,0,0,0,3.07-2.77h0c-1.31,2-3.31,5.74-7.2,8.55-2.25,1.63-5.18,2.62-6.48,3.37a7.78,7.78,0,0,0-3.08,3.2h0c-.37.6-.71,1.38-1.16,2.26a8.63,8.63,0,0,1-2.88,3.72,1.56,1.56,0,0,1-1.58.1c-1.1-.86-1.58-2.71-1.73-6.64-.17-4.52-.81-5.4-1.51-5.27C327.5,212.43,328.57,215.53,330.07,216.71Z"/><path class="cls-14" d="M364.59,197.17c-.12-4.55.42-9.91-.31-11.71-.49-1.22-1.17-1.53-2-1.13,1.28-.18,2.4,1.84,1.66,6.78-.41,2.75-1.62,7.88-1,11.52l.2,0c1.26.29,2.82,2,4.56,2.63C366,204.27,364.72,201.72,364.59,197.17Z"/><path class="cls-14" d="M351.27,208l2.56-1.48a74.19,74.19,0,0,0,2.3-7.32c1-3.59,1.77-7.81,2.7-10.16a39.69,39.69,0,0,0-1.42,3.76C356.46,195.8,353.94,203.27,351.27,208Z"/><path class="cls-8" d="M376.32,188.14c-1,1.68-2.18,4-3.85,5-2.51,1.45-4-2.64-4.82-4.74a21.38,21.38,0,0,0-.89-2.13c1,2.14,1.85,6.06,2.46,8.27.52,1.87,1,3.16,2.52,2.58s2.48-3.66,3.08-5.33A31,31,0,0,1,376.32,188.14Z"/><path class="cls-14" d="M376.56,191c-.75,2.35-1.11,4.94-2.3,8.71.47-1.19.9-2.39,1.41-3.39a12.23,12.23,0,0,1,5.82-6.26l3.85-2.22c-3.71,2.14-5.31.51-6.2,0S377.32,188.61,376.56,191Z"/><path class="cls-14" d="M378.62,187.72c-.73.13-1.44,1.34-2.06,3.24-.75,2.35-1.11,4.94-2.3,8.71.47-1.19.9-2.39,1.41-3.39.36-.73.69-1.36,1.05-1.94.13-1.13.23-2.11.28-2.68C377.18,189.92,377.82,188.3,378.62,187.72Z"/><path class="cls-14" d="M348.56,206.77c-3.6,2.08-6.07,1.07-7.77,2a4.13,4.13,0,0,0-.77.6c1.14-1,3-.24,4.43,0a6.56,6.56,0,0,0,4.15-.9,53.31,53.31,0,0,0,3-4.49h0A11.44,11.44,0,0,1,348.56,206.77Z"/><path class="cls-14" d="M327.52,218.56c.15,3.93.63,5.78,1.73,6.64a1.56,1.56,0,0,0,1.58-.1,7.93,7.93,0,0,0,2.66-3.28c-1.46,2-3.64,2.33-4.25.43s-.65-4.55-1.07-6.34-.92-2.73-1.62-2.77h-.14l-.1,0h-.06l-.09,0-.15.08C326.71,213.16,327.35,214,327.52,218.56Z"/><path class="cls-8" d="M321.87,221.62c-1.42,2.49-3,4-7.19,6.41l-.91.53c5.28-3.05,7.36-2.26,8.73-5.15s1.9-7.73,2.6-9.09C324,216.14,323,219.65,321.87,221.62Z"/><path class="cls-8" d="M353.74,202.85a51.22,51.22,0,0,1-2.47,5.18c-3,5.43-5.45,7.54-7.54,8.75a6.87,6.87,0,0,1-4.8,1,4.61,4.61,0,0,0-3.1.27,6.89,6.89,0,0,1,4.19-1.17c1.65,0,4.11-.78,6.93-3.57S353.62,203.08,353.74,202.85Z"/><path class="cls-19" d="M339.18,227.12a.08.08,0,0,1,.11,0,.17.17,0,0,1,0,.15v.34a.41.41,0,0,1,0,.21.33.33,0,0,1-.11.14l-1.14.66v5.46a.53.53,0,0,1-.05.2.27.27,0,0,1-.11.14l-.25.15a.1.1,0,0,1-.12,0,.21.21,0,0,1-.05-.15V229l-1.14.66a.09.09,0,0,1-.11,0,.21.21,0,0,1,0-.15v-.34a.54.54,0,0,1,0-.21.4.4,0,0,1,.11-.14Z"/><path class="cls-19" d="M343.14,224.83a.08.08,0,0,1,.12,0,.21.21,0,0,1,0,.15v6a.45.45,0,0,1,0,.2.49.49,0,0,1-.12.15l-.25.14a.09.09,0,0,1-.12,0,.21.21,0,0,1,0-.15v-2.64L340.58,230v2.64a.45.45,0,0,1,0,.2.49.49,0,0,1-.12.15l-.25.14a.09.09,0,0,1-.12,0,.22.22,0,0,1,0-.16v-6.05a.52.52,0,0,1,0-.21.58.58,0,0,1,.12-.14l.25-.14a.09.09,0,0,1,.12,0,.21.21,0,0,1,0,.15v2.56l2.15-1.23v-2.57a.52.52,0,0,1,0-.21.42.42,0,0,1,.12-.14Z"/><path class="cls-19" d="M347,228.33a.09.09,0,0,1,.12,0,.21.21,0,0,1,.05.15v.33a.54.54,0,0,1-.05.21.24.24,0,0,1-.12.14l-2.46,1.42a.07.07,0,0,1-.11,0,.21.21,0,0,1,0-.15v-6.05a.46.46,0,0,1,0-.2.37.37,0,0,1,.11-.15l2.41-1.39a.1.1,0,0,1,.12,0,.21.21,0,0,1,0,.15v.34a.46.46,0,0,1,0,.2.31.31,0,0,1-.12.15l-2,1.15v2l1.86-1.08a.09.09,0,0,1,.12,0,.21.21,0,0,1,0,.15V226a.51.51,0,0,1,0,.2c0,.07-.07.12-.12.14l-1.86,1.08v2Z"/><path class="cls-19" d="M350.75,220.34a1.21,1.21,0,0,1,.65-.2.84.84,0,0,1,.48.16.94.94,0,0,1,.3.38,1.15,1.15,0,0,1,.11.47.25.25,0,0,1,0,.16.24.24,0,0,1-.09.12l-.25.14c-.05,0-.08,0-.11,0s-.05,0-.08-.12a1.2,1.2,0,0,0-.1-.19.53.53,0,0,0-.48-.23.78.78,0,0,0-.39.13,1.27,1.27,0,0,0-.33.24,2,2,0,0,0-.28.35,1.92,1.92,0,0,0-.19.41,1.49,1.49,0,0,0-.07.47.74.74,0,0,0,.07.37.33.33,0,0,0,.22.18,1,1,0,0,0,.39,0l.58-.08a2.06,2.06,0,0,1,.59,0,.76.76,0,0,1,.39.15.65.65,0,0,1,.22.36,2,2,0,0,1,.07.59,2.92,2.92,0,0,1-.12.83,3.14,3.14,0,0,1-.33.8,3.42,3.42,0,0,1-.51.69,3.07,3.07,0,0,1-.67.53,1.47,1.47,0,0,1-.65.22.89.89,0,0,1-.52-.12.91.91,0,0,1-.33-.37,1.16,1.16,0,0,1-.14-.53.53.53,0,0,1,0-.17.27.27,0,0,1,.1-.11l.25-.15a.15.15,0,0,1,.11,0s.05.05.08.12a.76.76,0,0,0,.11.22.55.55,0,0,0,.2.17.62.62,0,0,0,.31,0,1,1,0,0,0,.44-.15,2.28,2.28,0,0,0,1-1.19,1.46,1.46,0,0,0,.09-.49.59.59,0,0,0-.1-.36.52.52,0,0,0-.28-.16,1.68,1.68,0,0,0-.45,0l-.6.1a1.31,1.31,0,0,1-.52,0,.69.69,0,0,1-.34-.2.8.8,0,0,1-.19-.39,2.26,2.26,0,0,1-.06-.55,3.1,3.1,0,0,1,.09-.73,3.31,3.31,0,0,1,.72-1.41A2.52,2.52,0,0,1,350.75,220.34Z"/><path class="cls-19" d="M353,221.56a4.72,4.72,0,0,1,.12-1.06,4.59,4.59,0,0,1,.32-1,4.06,4.06,0,0,1,.53-.85,2.43,2.43,0,0,1,.71-.61,1.19,1.19,0,0,1,.71-.21.73.73,0,0,1,.52.24,1.31,1.31,0,0,1,.33.62,3.54,3.54,0,0,1,.12.92c0,.55,0,1.1,0,1.66a5.39,5.39,0,0,1-.13,1.06,4.5,4.5,0,0,1-.32,1,3.79,3.79,0,0,1-.52.85,2.52,2.52,0,0,1-.71.6,1.29,1.29,0,0,1-.71.22.8.8,0,0,1-.52-.25,1.45,1.45,0,0,1-.33-.62,4.11,4.11,0,0,1-.12-.92C353,222.68,353,222.12,353,221.56Zm2.78-1.56a3.35,3.35,0,0,0-.09-.72.94.94,0,0,0-.23-.41.44.44,0,0,0-.35-.12.9.9,0,0,0-.43.14,1.83,1.83,0,0,0-.44.36,2.46,2.46,0,0,0-.34.52,3.19,3.19,0,0,0-.23.68,3.49,3.49,0,0,0-.09.82c0,.28,0,.55,0,.79s0,.51,0,.78a2.39,2.39,0,0,0,.09.72.88.88,0,0,0,.23.41.44.44,0,0,0,.34.12.9.9,0,0,0,.44-.14,1.62,1.62,0,0,0,.43-.36,2.15,2.15,0,0,0,.35-.52,3.19,3.19,0,0,0,.23-.68,5,5,0,0,0,.09-.82c0-.28,0-.55,0-.79S355.83,220.27,355.82,220Z"/><path class="cls-19" d="M360.09,221.6a.12.12,0,0,1-.15,0,.45.45,0,0,1-.1-.13l-2-3.44v4.61a.54.54,0,0,1-.05.21.34.34,0,0,1-.12.14l-.25.14a.07.07,0,0,1-.11,0,.17.17,0,0,1,0-.15v-6.05a.37.37,0,0,1,0-.2.37.37,0,0,1,.11-.15l.21-.12a.12.12,0,0,1,.15,0,.64.64,0,0,1,.1.13l2,3.44v-4.61a.48.48,0,0,1,0-.2.49.49,0,0,1,.12-.15l.25-.14a.09.09,0,0,1,.12,0,.21.21,0,0,1,0,.15v6a.52.52,0,0,1,0,.21.43.43,0,0,1-.12.14Z"/><path class="cls-19" d="M361.35,216.74a6,6,0,0,1,.12-1,4.86,4.86,0,0,1,.32-1,4.1,4.1,0,0,1,.54-.85,2.91,2.91,0,0,1,.76-.64,1.49,1.49,0,0,1,.73-.23.94.94,0,0,1,.52.16,1,1,0,0,1,.32.41,1.33,1.33,0,0,1,.11.5.27.27,0,0,1,0,.17.29.29,0,0,1-.09.12l-.25.14q-.15.09-.18,0a2.53,2.53,0,0,0-.16-.33.76.76,0,0,0-.23-.21.5.5,0,0,0-.31,0,1,1,0,0,0-.42.16,2,2,0,0,0-.46.37,2.25,2.25,0,0,0-.36.53,3.4,3.4,0,0,0-.24.68,3.45,3.45,0,0,0-.1.81c0,.29,0,.55,0,.79s0,.49,0,.77a2.47,2.47,0,0,0,.1.73.84.84,0,0,0,.24.41.47.47,0,0,0,.36.12,1.13,1.13,0,0,0,.46-.15,2.6,2.6,0,0,0,.46-.36,2.55,2.55,0,0,0,.37-.52,2.67,2.67,0,0,0,.25-.69,4.63,4.63,0,0,0,.08-.88v-.26l-.87.51a.1.1,0,0,1-.12,0,.21.21,0,0,1-.05-.15v-.34a.46.46,0,0,1,.05-.2.31.31,0,0,1,.12-.15l1.29-.74a.08.08,0,0,1,.11,0,.17.17,0,0,1,.05.15v.89a5.78,5.78,0,0,1-.11,1.1,4.61,4.61,0,0,1-.34,1,3.76,3.76,0,0,1-.55.85,2.91,2.91,0,0,1-.74.62,1.42,1.42,0,0,1-.76.24.75.75,0,0,1-.53-.24,1.45,1.45,0,0,1-.33-.63,4.22,4.22,0,0,1-.12-.94Q361.33,217.58,361.35,216.74Z"/></g></g></g></svg>