<svg xmlns="http://www.w3.org/2000/svg" viewBox="0 0 2472.99 1663.76"><defs><style>.cls-1{fill:#5e6c7a;}.cls-2{fill:#0f227a;}.cls-3{opacity:0.55;}.cls-4{fill:#fff;}.cls-5{opacity:0.3;}.cls-6{fill:#d0d4d8;}.cls-7{fill:#102770;}.cls-8{fill:#e5c62c;}.cls-9{fill:#e52c5c;}.cls-10{fill:#5e7def;}.cls-11{fill:#55bc5c;}</style></defs><g id="Capa_2" data-name="Capa 2"><g id="Layer_1" data-name="Layer 1"><path class="cls-1" d="M2291.27,1612.34c-50.92,31.58-116,28.12-163.7-8-88.37-67-190.85-176.3-295.81-293.15-52.53-63.44-118.54-100.35-208.6-90H849.82c-90-10.38-156.07,26.53-208.51,90-2.84,3.19-5.68,6.3-8.52,9.4-102,113.31-201.41,218.54-287.3,283.75a145,145,0,0,1-163.79,8c-126.17-77.82-163.34-224-149.15-403.8.09-1.69.27-3.37.45-5.15,2.92-36.64,8.16-74.62,15.17-113.74a1.53,1.53,0,0,1,.09-.63c.53-3,1.15-6.12,1.68-9.13C83.22,899.41,153.75,696.67,231,499.7c22.9-58.29,46.32-116,69.57-172.66,6.74-16.33,13.39-32.74,20-48.8l67-38.42,1.06-3.55,14.46-53.06A81.24,81.24,0,0,1,447,131c96-45.43,195.11-79,297.85-98.49,2.66-.53,5.24-1.06,7.9-1.5a82.29,82.29,0,0,1,57.32,10.73l75.5,46.05a152.25,152.25,0,0,0,79.77,22.54h542.39a152.69,152.69,0,0,0,79.76-22.54l75.42-46A82.34,82.34,0,0,1,1720.32,31C1825.72,50.3,1927.49,84.37,2026,131a81.84,81.84,0,0,1,43.92,52.26l15.44,56.61,67,38.42c7.1,17.12,14.28,34.51,21.38,52,102.75,249.95,209.13,524,251,759C2466.42,1322.82,2444.33,1517.84,2291.27,1612.34Z"/><path class="cls-2" d="M257.67,1636.59a146.51,146.51,0,0,1-77.29-22.13c-117-72.18-166.2-205-150.32-406.12.08-1.58.25-3.23.43-5,2.83-35.51,7.8-72.8,15.22-114.18,0,0-.07-.24.12-.83.26-1.45.54-2.92.81-4.39s.58-3,.84-4.53c37-200.81,121.16-427.56,181.22-580.66,19.94-50.77,42.05-105.64,69.58-172.7,3.11-7.53,6.2-15.08,9.28-22.59q5.4-13.2,10.78-26.22l.33-.79,66.86-38.34.78-2.6,14.44-53a83.43,83.43,0,0,1,45.19-53.87C544.28,82.15,644.7,49,744.38,30l1.2-.24c2.27-.46,4.48-.9,6.76-1.28a84.64,84.64,0,0,1,59,11.06l75.51,46.06a149.75,149.75,0,0,0,78.46,22.17h542.39a150.21,150.21,0,0,0,78.46-22.17l75.41-46a84.66,84.66,0,0,1,59.16-11.06C1823.16,47.28,1926.2,81,2027.05,128.69a84.25,84.25,0,0,1,45.26,53.85l15.17,55.62,66.83,38.33.33.79c7.1,17.13,14.29,34.53,21.38,52,106.17,258.26,210.08,529,251.16,759.47,47.89,268.27,3.86,440.23-134.59,525.7h0c-51.2,31.76-118.12,28.5-166.53-8.11-89.65-68-195.32-181.22-296.16-293.48-57.47-69.41-125-98.54-206.45-89.16l-773.63,0c-81.84-9.43-149.27,19.72-206.58,89.06-2.75,3.1-5.45,6-8.14,9l-.46.51c-97.11,107.83-199.18,216.89-287.63,284A148.07,148.07,0,0,1,257.67,1636.59Zm-207-546.77,0,.27c-7.38,41.22-12.34,78.34-15.14,113.5-.2,1.94-.36,3.51-.44,5.08-15.73,199.11,32.68,330.44,148,401.54,50.25,31.11,113.44,28,161-7.85,88.12-66.91,190-175.77,287-283.43l.47-.52c2.67-2.93,5.35-5.86,8-8.87,58.42-70.69,127.37-100.39,210.67-90.8h773.05c83-9.59,152,20.13,210.52,90.87,100.62,112,206.09,225.06,295.4,292.76,46.77,35.38,111.41,38.53,160.87,7.85h0c136.5-84.28,179.78-254.55,132.3-520.57-41-230-144.8-500.45-250.87-758.46-7-17.21-14-34.33-21-51.2l-67.15-38.51-15.71-57.6a79.21,79.21,0,0,0-42.57-50.66c-100.46-47.51-203.1-81.09-305.05-99.8a79.7,79.7,0,0,0-55.66,10.41L1588.8,89.87a155.15,155.15,0,0,1-81.07,22.91H965.34a154.72,154.72,0,0,1-81.07-22.91L808.76,43.82a79.74,79.74,0,0,0-55.57-10.4c-2.25.37-4.42.81-6.62,1.25l-1.23.25C646,53.78,546,86.85,448.06,133.21a78.48,78.48,0,0,0-42.49,50.65l-15.83,57.63L322.63,280c-3.48,8.4-6.95,16.89-10.44,25.41q-4.63,11.28-9.29,22.6c-27.52,67-49.62,121.88-69.54,172.62-60,152.91-144,379.36-181,579.73-.26,1.49-.55,3-.84,4.57s-.58,3-.84,4.55Z"/><g class="cls-3"><path class="cls-4" d="M2424.72,1088c-41.88-235-148.26-509-251-759-7.1-17.48-14.28-34.87-21.38-52l-67-38.41L2069.9,182A81.81,81.81,0,0,0,2026,129.7c-98.49-46.58-200.26-80.66-305.66-100a82.35,82.35,0,0,0-57.41,10.74l-75.42,46.05c-1.24.75-2.52,1.42-3.77,2.14a19.59,19.59,0,0,0-29.3,13,152.11,152.11,0,0,1-46.69,7.43H965.34a152.39,152.39,0,0,1-21.28-1.5,19.74,19.74,0,0,0-37.22-10.93l-.3.57a152,152,0,0,1-21-10.67l-75.5-46A82.3,82.3,0,0,0,752.75,29.7c-2.66.45-5.24,1-7.9,1.51C642.11,50.73,543,84.27,447,129.7A81.17,81.17,0,0,0,403.17,182L388.7,235l-1.06,3.55-67,38.41c-6.66,16.06-13.31,32.48-20,48.8C277.35,382.39,253.93,440.15,231,498.45c-77.28,197-147.82,399.71-181.09,580.18-.53,3-1.15,6.12-1.68,9.14a1.49,1.49,0,0,0-.09.62c-7,39.13-12.25,77.11-15.17,113.75-.18,1.77-.36,3.46-.45,5.15a835.35,835.35,0,0,0-2.38,94.9q.67-21.23,2.38-43.14c.09-1.69.27-3.37.45-5.15,2.92-36.64,8.16-74.62,15.17-113.74a1.53,1.53,0,0,1,.09-.63c.53-3,1.15-6.12,1.68-9.13C83.21,949.92,153.75,747.18,231,550.21c22.9-58.29,46.32-116.06,69.57-172.66,6.74-16.33,13.39-32.74,20-48.8l67-38.42,1.06-3.55,14.47-53.06A81.19,81.19,0,0,1,447,181.46C543,136,642.11,102.49,744.85,83c2.66-.53,5.24-1.06,7.9-1.51A82.35,82.35,0,0,1,810.07,92.2l75.47,46L842.16,223a19.76,19.76,0,0,0,35.19,18l44.34-86.68a152.41,152.41,0,0,0,43.65,6.44h542.39a152.48,152.48,0,0,0,64.58-14.47L1620.76,241a19.76,19.76,0,0,0,35.18-18l-49.33-96.45,56.3-34.38a82.4,82.4,0,0,1,57.41-10.74c105.4,19.35,207.17,53.42,305.66,100a81.84,81.84,0,0,1,43.92,52.26l15.44,56.61,67,38.42c7.1,17.12,14.28,34.51,21.38,52,102.75,250,209.13,524,251,759,10.09,56.52,16.4,110.75,18.07,161.87C2445,1235.87,2438.29,1164,2424.72,1088Z"/></g><g class="cls-5"><path class="cls-2" d="M1477.8,110.28c1.07,4.79,1.69,7.63,1.69,7.63l97.07,160.42,31-14.82c57.14-113.22,166.36-97.87,166.36-97.87L1730.14,39.56l-3-7.1c-2.66-.53-5.23-1.06-7.89-1.5a82.28,82.28,0,0,0-57.32,10.73L1586.4,87.74a152.22,152.22,0,0,1-79.76,22.54Z"/></g><g class="cls-5"><path class="cls-2" d="M994.17,110.28c-1.06,4.79-1.68,7.63-1.68,7.63L895.42,278.33l-31-14.82c-57.14-113.22-166.37-97.87-166.37-97.87L741.84,39.56l3-7.1c2.66-.53,5.24-1.06,7.9-1.5a82.29,82.29,0,0,1,57.32,10.73l75.5,46.05a152.25,152.25,0,0,0,79.77,22.54Z"/></g><path class="cls-4" d="M2424.72,1089.2c-41.88-235-148.26-509-251-759-7.1-17.48-14.28-34.87-21.38-52l-67-38.42v0l-269.47-68.34A195,195,0,0,0,1625.75,227L1516.12,343.9a150,150,0,0,1-109.4,47.37H1066.27A150,150,0,0,1,956.88,343.9L847.25,227a195,195,0,0,0-190.12-55.6l-269.5,68.39-67,38.42c-6.66,16.06-13.31,32.47-20,48.8C277.35,383.64,253.93,441.41,231,499.7c-77.28,197-147.82,399.71-181.09,580.19-.53,3-1.15,6.12-1.68,9.13a1.53,1.53,0,0,0-.09.63c-7,39.12-12.25,77.1-15.17,113.74-.18,1.78-.36,3.46-.45,5.15-14.19,179.76,23,326,149.15,403.8a145,145,0,0,0,163.79-8c85.89-65.21,185.26-170.44,287.3-283.75,2.84-3.1,5.68-6.21,8.52-9.4,52.44-63.44,118.54-100.35,208.51-90h773.34c90.06-10.38,156.07,26.53,208.6,90,105,116.85,207.44,226.16,295.81,293.15,47.74,36.11,112.78,39.57,163.7,8C2444.33,1517.84,2466.42,1322.82,2424.72,1089.2Z"/><g class="cls-5"><path class="cls-2" d="M2291.27,1612.28c-50.92,31.64-115.95,28.14-163.67-7.94-88.43-67-190.88-176.34-295.8-293.22-52.56-63.38-118.63-100.28-208.6-89.87H849.8c-90-10.41-156,26.49-208.5,89.87-2.79,3.2-5.67,6.39-8.56,9.48-102,113.27-201.39,218.5-287.24,283.74-47.83,36.08-112.76,39.58-163.77,7.94-126.16-77.82-163.36-224-149.14-403.81a44.76,44.76,0,0,1,.41-5c.42-5.46.93-10.93,1.55-16.49C48.36,1297.11,93,1385.64,181.73,1440.26c51,31.64,115.94,28.14,163.77-7.93,85.85-65.24,185.21-170.47,287.24-283.74,2.89-3.2,5.77-6.29,8.56-9.48,52.46-63.39,118.52-100.29,208.5-90h773.4c27.52-3.2,52.87-1.86,76.27,3.19.1.11.1,0,.1,0,52.25-47.1,75.24-122.33,53.59-192.31-1-3.2-2.06-6.39-3.19-9.49-10.31-27.82,22-51.84,45.14-33.39,1.45,1.13,2.78,2.27,4.12,3.4,27.21,22.78,47.93,53.7,58.65,90.7,16,56.23,3.62,115.56-29.55,160.54-14.83,20.13-12.87,47.75,3.15,67l.32.39c104.92,116.87,207.37,226.22,295.8,293.22,47.72,36.07,112.75,39.57,163.67,7.93,88.74-54.72,133.47-143.26,147.18-253.54C2457.41,1376.36,2422.47,1531.27,2291.27,1612.28Z"/></g><path class="cls-2" d="M2215.36,1663.76a174.68,174.68,0,0,1-105.68-35.85c-91.39-69.23-198.18-183.6-300-296.87-.27-.3-.53-.61-.79-.92-51.75-62.54-109.68-87.79-182.38-79.47a29.17,29.17,0,0,1-3.37.2H849.82a29.17,29.17,0,0,1-3.37-.2c-72.67-8.31-130.63,16.93-182.37,79.47-.26.31-.52.62-.79.92-101.79,113.27-208.57,227.63-300,296.87-58.09,44-135.49,47.81-197.21,9.68-153.64-94.93-200.06-285-141.93-581C72,813.17,183.34,533,293.29,266.88a29.67,29.67,0,0,1,12.65-14.39l56.35-32.34,12.26-44.76a111.23,111.23,0,0,1,59.76-71.29c103-48.68,208.34-83.09,313-102.27a111.27,111.27,0,0,1,78.19,14.55L901,62.51A123.24,123.24,0,0,0,965.3,80.59h542.39A123.19,123.19,0,0,0,1572,62.51l75.49-46.13a111.22,111.22,0,0,1,78.19-14.55c104.7,19.18,210,53.59,313,102.27a111.19,111.19,0,0,1,59.77,71.29l12.26,44.77,56.35,32.33a29.65,29.65,0,0,1,12.64,14.39c110,266.11,221.3,546.29,269.11,789.73,58.13,296,11.71,486.05-141.93,581A173.77,173.77,0,0,1,2215.36,1663.76ZM1854.2,1291.85c99.7,111,204,222.67,291.28,288.81,38.41,29.11,89.54,31.65,130.24,6.5,304.82-188.35,35.34-847.07-146.94-1288.29l-58.19-33.39a29.61,29.61,0,0,1-13.83-17.88l-15.49-56.55a52,52,0,0,0-27.92-33.35C1915,111.22,1814.61,78.4,1715,60.14a52.12,52.12,0,0,0-36.6,6.82l-75.48,46.13a182.52,182.52,0,0,1-95.2,26.79H965.3a182.51,182.51,0,0,1-95.19-26.79L794.63,67A52.16,52.16,0,0,0,758,60.14C658.4,78.39,558,111.22,459.64,157.7a52,52,0,0,0-27.91,33.35l-15.49,56.56a29.63,29.63,0,0,1-13.84,17.87l-58.18,33.39c-182.29,441.22-451.77,1099.94-147,1288.29,40.72,25.15,91.84,22.6,130.25-6.5,87.31-66.15,191.58-177.87,291.28-288.8,64.34-77.53,140.53-110.33,232.67-100.3h770.06C1713.68,1181.52,1789.85,1214.34,1854.2,1291.85Z"/><path class="cls-2" d="M1406.72,417.62H1066.27a177,177,0,0,1-128.61-55.7L828,245.05A168.64,168.64,0,0,0,663.61,197L394.12,265.32a26.35,26.35,0,0,1-12.94-51.08l269.48-68.35A221.35,221.35,0,0,1,866.46,209L976.09,325.87a124.11,124.11,0,0,0,90.18,39.06h340.45a124.1,124.1,0,0,0,90.18-39.06L1606.53,209a221.37,221.37,0,0,1,215.81-63.11l269.48,68.35a26.35,26.35,0,0,1-13,51.08L1809.39,197A168.68,168.68,0,0,0,1645,245.05L1535.33,361.92A177,177,0,0,1,1406.72,417.62Z"/><path class="cls-2" d="M847.23,246.79A19.76,19.76,0,0,1,829.66,218L894.33,91.59a19.76,19.76,0,0,1,35.19,18L864.84,236A19.75,19.75,0,0,1,847.23,246.79Z"/><path class="cls-2" d="M1625.86,246.79A19.77,19.77,0,0,1,1608.25,236l-64.68-126.44a19.76,19.76,0,0,1,35.19-18L1643.44,218a19.77,19.77,0,0,1-17.58,28.76Z"/><circle class="cls-6" cx="923.06" cy="898.02" r="191.02"/><path class="cls-2" d="M923.06,1091.54c-106.7,0-193.52-86.81-193.52-193.52s86.82-193.51,193.52-193.51S1116.58,791.32,1116.58,898,1029.76,1091.54,923.06,1091.54Zm0-382c-103.95,0-188.52,84.57-188.52,188.51s84.57,188.52,188.52,188.52S1111.58,1002,1111.58,898,1027,709.51,923.06,709.51Z"/><g class="cls-5"><path class="cls-7" d="M1077.57,785.78a190,190,0,0,0-71.86-14c-105.52,0-191,85.56-191,191A189.67,189.67,0,0,0,851.18,1075,190.91,190.91,0,0,1,732,898c0-105.45,85.56-191,191-191A190.57,190.57,0,0,1,1077.57,785.78Z"/><path class="cls-2" d="M860.18,1082,850,1077.9A193.27,193.27,0,0,1,728.9,898c0-107,87.09-194.14,194.15-194.14a194.76,194.76,0,0,1,157,80.07l6.45,8.87-10.16-4.14a186.45,186.45,0,0,0-70.68-13.8c-103.6,0-187.89,84.29-187.89,187.89a186,186,0,0,0,35.89,110.4Zm62.87-371.89c-103.61,0-187.9,84.28-187.9,187.88a187,187,0,0,0,107.24,169.72,192.17,192.17,0,0,1-30.82-105c0-107,87.09-194.14,194.14-194.14A192.93,192.93,0,0,1,1068.38,779,188.53,188.53,0,0,0,923.05,710.13Z"/></g><path class="cls-2" d="M923.06,1107.8c-115.67,0-209.78-94.1-209.78-209.78s94.11-209.77,209.78-209.77,209.78,94.1,209.78,209.77S1038.73,1107.8,923.06,1107.8Zm0-382c-95,0-172.26,77.27-172.26,172.25s77.28,172.26,172.26,172.26S1095.32,993,1095.32,898,1018,725.77,923.06,725.77Z"/><circle class="cls-1" cx="1561.17" cy="898.02" r="136.13" transform="translate(-177.74 1366.94) rotate(-45)"/><path class="cls-2" d="M1561.17,1037.28c-76.79,0-139.25-62.47-139.25-139.26s62.46-139.25,139.25-139.25S1700.42,821.24,1700.42,898,1638,1037.28,1561.17,1037.28Zm0-272.25c-73.34,0-133,59.66-133,133s59.66,133,133,133,133-59.66,133-133S1634.5,765,1561.17,765Z"/><circle class="cls-6" cx="1561.17" cy="898.02" r="136.13" transform="translate(-177.74 1366.94) rotate(-45)"/><path class="cls-2" d="M1561.17,1036.65c-76.44,0-138.63-62.19-138.63-138.63s62.19-138.62,138.63-138.62S1699.79,821.59,1699.79,898,1637.61,1036.65,1561.17,1036.65Zm0-272.25c-73.69,0-133.63,59.94-133.63,133.62s59.94,133.63,133.63,133.63S1694.79,971.71,1694.79,898,1634.85,764.4,1561.17,764.4Z"/><path class="cls-2" d="M1561.17,1052.91c-85.41,0-154.89-69.48-154.89-154.89s69.48-154.88,154.89-154.88S1716.05,812.62,1716.05,898,1646.57,1052.91,1561.17,1052.91Zm0-272.25A117.37,117.37,0,1,0,1678.53,898,117.5,117.5,0,0,0,1561.17,780.66Z"/><circle class="cls-2" cx="1561.17" cy="898.02" r="64.77"/><circle class="cls-1" cx="623.67" cy="514.2" r="136.13" transform="translate(-180.93 591.61) rotate(-45)"/><path class="cls-2" d="M623.68,653.46c-76.79,0-139.26-62.47-139.26-139.26S546.89,375,623.68,375,762.92,437.42,762.92,514.2,700.46,653.46,623.68,653.46Zm0-272.26c-73.34,0-133,59.67-133,133s59.67,133,133,133,133-59.66,133-133S697,381.2,623.68,381.2Z"/><g class="cls-5"><path class="cls-2" d="M889,608.72C882.2,696.92,812,769.14,724.09,778.37a184.58,184.58,0,0,1-146-49c-12.34-19.08-.36-32.92,17.92-32.21a183.81,183.81,0,0,0,37.17,1.87c93.7-4.62,170.36-81,175.33-174.71.18-3.28.27-6.65.27-9.94.08-29.72,38.59-41.08,53.94-15.7,1,1.6,1.87,3.11,2.75,4.61A184.21,184.21,0,0,1,889,608.72Z"/></g><circle class="cls-6" cx="623.67" cy="514.2" r="136.13" transform="translate(-180.93 591.61) rotate(-45)"/><path class="cls-2" d="M623.68,677c-89.74,0-162.75-73-162.75-162.75s73-162.74,162.75-162.74,162.73,73,162.73,162.74S713.41,677,623.68,677Zm0-272.26A109.51,109.51,0,1,0,733.18,514.2,109.64,109.64,0,0,0,623.68,404.69Z"/><circle class="cls-2" cx="623.67" cy="514.2" r="64.77"/><circle class="cls-8" cx="1857.6" cy="380.77" r="75.34"/><path class="cls-2" d="M1055.11,864.29v67.47A15.14,15.14,0,0,1,1040,946.9h-63.9v63.9a15.14,15.14,0,0,1-15.14,15.14h-67.4a15.14,15.14,0,0,1-15.14-15.14V946.9H814.48a15.13,15.13,0,0,1-15.13-15.14V864.29a15.13,15.13,0,0,1,15.13-15.14h63.91v-63.9a15.14,15.14,0,0,1,15.14-15.14h67.4a15.14,15.14,0,0,1,15.14,15.14v63.9H1040A15.14,15.14,0,0,1,1055.11,864.29Z"/><circle class="cls-9" cx="2012.42" cy="535.6" r="75.34"/><circle class="cls-10" cx="1702.77" cy="535.6" r="75.34"/><g class="cls-5"><path class="cls-2" d="M1978.08,433.69a75.36,75.36,0,0,1-146.49,24.9,75.32,75.32,0,0,0,111.32-66.19,76,76,0,0,0-4.22-24.9A75.24,75.24,0,0,1,1978.08,433.69Z"/><path class="cls-2" d="M1978.08,743.34a75.36,75.36,0,0,1-146.49,24.9,75.36,75.36,0,0,0,107.1-91.1A75.25,75.25,0,0,1,1978.08,743.34Z"/><path class="cls-2" d="M2132.87,588.55a75.38,75.38,0,0,1-146.49,24.9,75.39,75.39,0,0,0,111.39-66.2,75.75,75.75,0,0,0-4.22-24.9A75.27,75.27,0,0,1,2132.87,588.55Z"/><path class="cls-2" d="M1823.23,588.55a75.38,75.38,0,0,1-146.49,24.9,75.38,75.38,0,0,0,111.38-66.2,75.75,75.75,0,0,0-4.21-24.9A75.29,75.29,0,0,1,1823.23,588.55Z"/></g><circle class="cls-11" cx="1857.6" cy="690.42" r="75.34"/><g class="cls-3"><path class="cls-4" d="M1912.09,328.81a71.35,71.35,0,0,0-20-2.79,75.31,75.31,0,0,0-54.52,127.29,75.3,75.3,0,1,1,74.51-124.5Z"/></g><g class="cls-3"><path class="cls-4" d="M2066.9,483.61a71.78,71.78,0,0,0-20-2.78,75.3,75.3,0,0,0-54.52,127.28,75.3,75.3,0,1,1,74.52-124.5Z"/></g><g class="cls-3"><path class="cls-4" d="M1757.29,483.61a71.73,71.73,0,0,0-20-2.78,75.3,75.3,0,0,0-54.52,127.28,75.3,75.3,0,1,1,74.52-124.5Z"/></g><g class="cls-3"><path class="cls-4" d="M1912.09,638.52a71.35,71.35,0,0,0-20-2.78A75.3,75.3,0,0,0,1837.58,763a75.3,75.3,0,1,1,74.51-124.5Z"/></g><path class="cls-2" d="M1857.6,788a97.53,97.53,0,1,1,97.53-97.53A97.64,97.64,0,0,1,1857.6,788Zm0-150.69a53.16,53.16,0,1,0,53.16,53.16A53.21,53.21,0,0,0,1857.6,637.26Z"/><path class="cls-2" d="M1857.6,478.3a97.53,97.53,0,1,1,97.53-97.53A97.64,97.64,0,0,1,1857.6,478.3Zm0-150.69a53.16,53.16,0,1,0,53.16,53.16A53.22,53.22,0,0,0,1857.6,327.61Z"/><path class="cls-2" d="M2012.42,633.12a97.53,97.53,0,1,1,97.52-97.53A97.64,97.64,0,0,1,2012.42,633.12Zm0-150.68a53.16,53.16,0,1,0,53.16,53.15A53.21,53.21,0,0,0,2012.42,482.44Z"/><path class="cls-2" d="M1702.78,633.12a97.53,97.53,0,1,1,97.52-97.53A97.64,97.64,0,0,1,1702.78,633.12Zm0-150.68a53.16,53.16,0,1,0,53.16,53.15A53.22,53.22,0,0,0,1702.78,482.44Z"/><circle class="cls-2" cx="1119.9" cy="585.33" r="49.74" transform="translate(292.93 1540.79) rotate(-76.72)"/><circle class="cls-2" cx="1353.09" cy="585.33" r="49.74" transform="translate(-17.58 1128.22) rotate(-45)"/><g class="cls-5"><path class="cls-2" d="M1201.47,615.05a49.69,49.69,0,0,1-96.1,17.85,48.3,48.3,0,0,0,14.55,2.17,49.72,49.72,0,0,0,49.73-49.73,48.47,48.47,0,0,0-3.36-17.85A49.72,49.72,0,0,1,1201.47,615.05Z"/><path class="cls-2" d="M1434.64,615.05a49.69,49.69,0,0,1-96.1,17.85,48.32,48.32,0,0,0,14.56,2.17,49.73,49.73,0,0,0,49.73-49.73,48.68,48.68,0,0,0-3.36-17.85A49.73,49.73,0,0,1,1434.64,615.05Z"/></g></g></g></svg>